<svg width="104px" height="76px" viewBox="0 0 5000 5000" fill="#f7f8fa" xmlns="http://www.w3.org/2000/svg">
<!-- <svg id="Layer_1" width="34" height="16" xmlns="http://www.w3.org/2000/svg"  fill="none"  viewBox="0 0 5000 5000"  > -->
<path fill="#FFFFFF"  stroke="none" 
	d="
M2312.000000,5004.000000 
	C1541.333374,5004.000000 772.666687,5004.000000 4.000000,5004.000000 
	C4.000000,3337.333252 4.000000,1670.666626 4.000000,4.000001 
	C1670.666626,4.000000 3337.333252,4.000000 5004.000000,4.000000 
	C5004.000000,1670.666626 5004.000000,3337.333252 5004.000000,5004.000000 
	C4107.333496,5004.000000 3210.666748,5004.000000 2312.000000,5004.000000 
M4680.176758,2873.517578 
	C4679.982422,2869.026611 4679.788574,2864.535645 4680.269531,2856.343262 
	C4680.291504,2784.854248 4680.328613,2713.365479 4680.298340,2641.876465 
	C4680.296387,2637.269531 4679.769531,2632.662598 4680.300781,2624.377197 
	C4680.029297,2593.566406 4679.758301,2562.755371 4680.252930,2528.271484 
	C4680.280273,2444.801270 4680.320801,2361.331299 4680.299805,2277.861084 
	C4680.298340,2273.248291 4679.792969,2268.635742 4680.372559,2260.355957 
	C4680.091797,2229.566162 4679.810547,2198.776367 4680.263184,2164.302490 
	C4680.287598,2065.657471 4680.332520,1967.012207 4680.276367,1868.367065 
	C4680.273438,1863.318970 4679.405762,1858.271240 4678.857422,1852.320557 
	C4669.630859,1852.320557 4661.710449,1852.320679 4653.790039,1852.320679 
	C4138.567871,1852.320679 3623.345947,1852.320679 3108.123779,1852.320923 
	C3102.791748,1852.320923 3097.445557,1852.092407 3092.132080,1852.407715 
	C3088.391602,1852.629639 3084.695068,1853.593628 3080.332520,1854.336304 
	C3080.332520,1861.988770 3080.332275,1868.611206 3080.332275,1875.233521 
	C3080.332031,1932.554443 3080.362793,1989.875488 3080.270996,2047.196289 
	C3080.263916,2051.628906 3079.395996,2056.059814 3078.854980,2061.183594 
	C3070.476562,2061.183594 3063.189209,2061.183594 3055.901611,2061.183594 
	C2731.304932,2061.183594 2406.708496,2061.183594 2082.111816,2061.183350 
	C2077.446045,2061.183350 2072.767334,2061.393311 2068.118896,2061.108643 
	C2064.413818,2060.881592 2060.746338,2060.047852 2056.336670,2059.372314 
	C2056.336670,2051.493408 2056.336670,2044.902954 2056.336670,2038.312500 
	C2056.336670,1981.658081 2056.371826,1925.003662 2056.275391,1868.349365 
	C2056.266846,1863.302124 2055.400635,1858.256592 2054.850098,1852.320679 
	C2046.938232,1852.320679 2040.354980,1852.320679 2033.771729,1852.320679 
	C1725.171753,1852.320679 1416.571655,1852.315308 1107.971680,1852.355835 
	C1101.332886,1852.356812 1094.694214,1852.884521 1084.377930,1852.374634 
	C1057.583252,1852.621338 1030.788574,1852.868042 1000.309387,1852.396606 
	C974.873657,1852.635986 949.437988,1852.875366 920.334656,1852.324707 
	C895.970154,1852.325928 871.605225,1852.230957 847.241394,1852.359375 
	C828.833130,1852.456299 810.426453,1852.838623 788.327148,1852.392334 
	C760.274170,1852.632080 732.221130,1852.871826 700.480164,1852.282349 
	C676.282288,1852.527832 652.084412,1852.773193 624.199463,1852.388550 
	C533.573181,1852.465332 442.946899,1852.540771 352.320618,1852.646851 
	C351.728790,1852.647461 351.088654,1852.996582 350.559326,1853.325195 
	C350.001404,1853.671509 349.549530,1854.188843 347.662964,1855.864502 
	C347.662964,1860.503662 347.662964,1866.386108 347.662964,1872.268555 
	C347.662964,2033.537842 347.655548,2194.807129 347.695648,2356.076416 
	C347.696960,2361.385010 348.181305,2366.693848 347.602173,2375.521973 
	C347.882629,2386.348145 348.163086,2397.174072 347.736084,2411.690674 
	C347.711761,2631.174805 347.682678,2850.659180 347.695496,3070.143311 
	C347.695770,3074.776611 348.179352,3079.410156 347.959686,3086.480957 
	C349.290192,3087.036133 350.620697,3087.591309 355.602417,3089.094727 
	C571.245178,3089.132568 786.887939,3089.170410 1002.530701,3089.208252 
	C1008.520813,3089.209229 1014.522766,3088.983398 1020.496643,3089.295654 
	C1024.215088,3089.489746 1027.891113,3090.498047 1031.909058,3091.197021 
	C1033.199585,3117.278809 1031.207642,3142.457275 1033.216797,3168.383301 
	C1040.078247,3168.688477 1045.920776,3169.173340 1051.763428,3169.175293 
	C1178.220947,3169.218750 1304.678467,3169.222412 1431.135986,3169.165527 
	C1437.094238,3169.162842 1443.052246,3168.530273 1451.440186,3169.157471 
	C1453.127930,3168.804932 1454.815674,3168.452393 1460.104980,3168.951172 
	C1460.769531,3168.990723 1461.433960,3169.064941 1462.098511,3169.064941 
	C1655.822021,3169.114746 1849.545654,3169.162598 2043.269165,3169.180420 
	C2047.075806,3169.180664 2050.882568,3168.825684 2055.837646,3168.579346 
	C2056.018311,3158.919189 2056.240723,3150.411133 2056.319092,3141.901611 
	C2056.398682,3133.248047 2056.178711,3124.589355 2056.381836,3115.939697 
	C2056.579346,3107.520752 2055.309082,3098.928955 2057.759033,3089.802246 
	C2065.972900,3089.586914 2073.183594,3089.235840 2080.394287,3089.233154 
	C2178.255127,3089.196533 2276.116211,3089.254639 2373.976807,3089.110840 
	C2380.947998,3089.100586 2388.407227,3090.918457 2395.667480,3086.496826 
	C2395.667480,3079.482178 2395.667236,3072.890625 2395.667236,3066.299072 
	C2395.667236,3011.709961 2395.632080,2957.121094 2395.709961,2902.531982 
	C2395.720215,2895.232178 2396.305908,2887.933350 2400.276855,2880.735107 
	C2726.141846,2880.713135 3052.006592,2880.697266 3377.871582,2880.628174 
	C3385.165527,2880.626709 3392.459229,2880.013184 3403.211426,2880.287354 
	C3408.250244,2881.016602 3413.748047,2878.944824 3419.663330,2883.160645 
	C3419.663330,2905.297119 3419.663574,2927.865479 3419.663574,2950.434082 
	C3419.663574,2973.759766 3419.526855,2997.086426 3419.702637,3020.410889 
	C3419.871826,3042.869873 3418.894043,3065.371094 3420.369873,3087.602051 
	C3439.980957,3089.824219 4661.310547,3089.727295 4679.583496,3087.506836 
	C4679.823730,3083.276367 4680.292969,3078.770996 4680.302246,3074.264404 
	C4680.366699,3042.941406 4680.422852,3011.618164 4680.304688,2980.295410 
	C4680.231934,2960.980469 4679.846191,2941.666748 4680.478516,2919.100830 
	C4680.181152,2905.034912 4679.883789,2890.968994 4680.176758,2873.517578 
z"/>
<path fill="#f7f8fa" opacity="1.000000" stroke="none" 
	d="
M1088.055420,1853.166504 
	C1094.694214,1852.884521 1101.332886,1852.356812 1107.971680,1852.355835 
	C1416.571655,1852.315308 1725.171753,1852.320679 2033.771729,1852.320679 
	C2040.354980,1852.320679 2046.938232,1852.320679 2054.850098,1852.320679 
	C2055.400635,1858.256592 2056.266846,1863.302124 2056.275391,1868.349365 
	C2056.371826,1925.003662 2056.336670,1981.658081 2056.336670,2038.312500 
	C2056.336670,2044.902954 2056.336670,2051.493408 2056.336670,2059.372314 
	C2060.746338,2060.047852 2064.413818,2060.881592 2068.118896,2061.108643 
	C2072.767334,2061.393311 2077.446045,2061.183350 2082.111816,2061.183350 
	C2406.708496,2061.183594 2731.304932,2061.183594 3055.901611,2061.183594 
	C3063.189209,2061.183594 3070.476562,2061.183594 3078.854980,2061.183594 
	C3079.395996,2056.059814 3080.263916,2051.628906 3080.270996,2047.196289 
	C3080.362793,1989.875488 3080.332031,1932.554443 3080.332275,1875.233521 
	C3080.332275,1868.611206 3080.332520,1861.988770 3080.332520,1854.336304 
	C3084.695068,1853.593628 3088.391602,1852.629639 3092.132080,1852.407715 
	C3097.445557,1852.092407 3102.791748,1852.320923 3108.123779,1852.320923 
	C3623.345947,1852.320679 4138.567871,1852.320679 4653.790039,1852.320679 
	C4661.710449,1852.320679 4669.630859,1852.320557 4678.857422,1852.320557 
	C4679.405762,1858.271240 4680.273438,1863.318970 4680.276367,1868.367065 
	C4680.332520,1967.012207 4680.287598,2065.657471 4678.051758,2166.141113 
	C4639.876465,2167.997559 4603.912109,2168.053223 4567.947754,2167.991211 
	C4562.775391,2167.982178 4557.160645,2169.040283 4551.966309,2162.389160 
	C4551.966309,2156.770020 4551.966309,2149.491943 4551.966309,2142.213623 
	C4551.965332,2083.604980 4552.018555,2024.996338 4551.875977,1966.388184 
	C4551.862305,1960.800293 4553.682129,1954.515625 4549.227539,1950.097656 
	C4546.927246,1950.097656 4545.553711,1949.794312 4544.371582,1950.142334 
	C4517.652344,1958.006104 4490.930664,1965.865234 4464.258789,1973.887817 
	C4444.018066,1979.976196 4443.988770,1980.076660 4443.972656,2000.577515 
	C4443.935547,2049.196045 4444.027344,2097.814697 4443.881836,2146.432861 
	C4443.862305,2152.889160 4445.592285,2159.756592 4440.893555,2166.451416 
	C4434.297363,2168.989990 4426.938477,2167.987305 4419.754883,2167.997559 
	C4367.140625,2168.074219 4314.524414,2168.241211 4261.912598,2167.881348 
	C4250.390625,2167.802490 4240.915039,2169.500977 4235.347656,2180.983398 
	C4233.664062,2184.455811 4230.462402,2187.244629 4227.754395,2190.158936 
	C4208.311523,2211.080811 4188.793945,2231.932617 4169.370605,2252.872070 
	C4167.208984,2255.201904 4164.473145,2257.604980 4167.018066,2262.642822 
	C4172.504883,2265.042480 4179.178711,2263.916504 4185.614258,2263.930176 
	C4230.236816,2264.025635 4274.858887,2263.979980 4319.481445,2263.980713 
	C4354.779785,2263.981201 4390.078613,2263.907959 4425.375977,2264.060059 
	C4431.144531,2264.084961 4437.476562,2262.392822 4443.554688,2268.749268 
	C4443.673340,2274.728516 4443.937500,2281.965576 4443.941895,2289.202637 
	C4443.976562,2345.147217 4444.435547,2401.097656 4443.732910,2457.033447 
	C4443.443848,2480.038330 4447.577148,2501.674561 4455.104004,2523.267578 
	C4473.020508,2574.668213 4509.735840,2605.257568 4560.724121,2619.864990 
	C4581.081543,2625.697021 4602.089355,2628.750977 4623.546875,2628.087402 
	C4642.176270,2627.511230 4660.838867,2628.024170 4679.486816,2628.055664 
	C4679.769531,2632.662598 4680.296387,2637.269531 4680.298340,2641.876465 
	C4680.328613,2713.365479 4680.291504,2784.854248 4678.570312,2858.199219 
	C4675.057129,2860.137695 4673.242676,2860.220215 4670.327148,2859.537598 
	C4658.378906,2845.653076 4644.171875,2839.345703 4627.437012,2838.210938 
	C4620.803223,2837.760742 4614.166016,2837.114990 4607.525879,2837.063721 
	C4587.528320,2836.909424 4567.526855,2837.123291 4547.529297,2836.927246 
	C4541.570312,2836.868652 4535.438477,2836.654053 4529.709473,2835.219971 
	C4522.170410,2833.333008 4516.640625,2828.457764 4515.566895,2820.183838 
	C4514.974609,2815.621338 4514.444824,2810.892334 4514.990723,2806.371826 
	C4516.342773,2795.173096 4521.348145,2789.571777 4532.356445,2787.526123 
	C4539.505371,2786.197754 4546.901367,2785.772949 4554.192383,2785.719238 
	C4581.522949,2785.518555 4608.856934,2785.710205 4636.187988,2785.562256 
	C4640.676758,2785.538086 4645.159668,2784.546875 4650.072754,2783.950684 
	C4654.330566,2773.051514 4661.240723,2764.059326 4664.504883,2751.624756 
	C4660.059082,2751.105469 4656.931641,2750.428711 4653.802734,2750.422119 
	C4617.804199,2750.347656 4581.805664,2750.289307 4545.808105,2750.446533 
	C4538.497559,2750.478516 4531.099121,2750.866943 4523.899902,2752.053223 
	C4501.518555,2755.741699 4486.336426,2768.114746 4479.802734,2790.248047 
	C4475.536621,2804.699951 4475.564941,2819.278320 4479.936035,2833.600342 
	C4485.586426,2852.115967 4497.555664,2864.880859 4516.685547,2869.535889 
	C4524.358398,2871.403076 4532.456055,2872.133057 4540.377930,2872.256348 
	C4563.038086,2872.609131 4585.709961,2872.201660 4608.371582,2872.502930 
	C4614.949219,2872.590576 4621.597168,2873.634277 4628.054688,2874.994629 
	C4636.893066,2876.856445 4641.639160,2883.370605 4643.268555,2891.711914 
	C4645.925781,2905.319336 4642.307129,2922.286377 4620.250977,2924.017334 
	C4616.271973,2924.329834 4612.257324,2924.239990 4608.258789,2924.245117 
	C4591.592773,2924.267090 4574.927246,2924.254883 4558.261230,2924.254883 
	C4538.291504,2924.255127 4518.322266,2924.254883 4499.015137,2924.254883 
	C4487.435547,2941.008057 4485.419434,2945.407227 4482.958008,2959.127197 
	C4486.983398,2959.334229 4490.942383,2959.710938 4494.901367,2959.715088 
	C4535.566406,2959.757812 4576.230957,2959.741211 4616.895996,2959.734863 
	C4619.562012,2959.734375 4622.239746,2959.832275 4624.891602,2959.621582 
	C4646.822266,2957.880371 4664.806641,2949.660645 4675.212891,2928.943359 
	C4676.388672,2926.602295 4678.124512,2924.542480 4679.601562,2922.352295 
	C4679.846191,2941.666748 4680.231934,2960.980469 4680.304688,2980.295410 
	C4680.422852,3011.618164 4680.366699,3042.941406 4680.302246,3074.264404 
	C4680.292969,3078.770996 4679.823730,3083.276367 4679.583496,3087.506836 
	C4661.310547,3089.727295 3439.980957,3089.824219 3420.369873,3087.602051 
	C3418.894043,3065.371094 3419.871826,3042.869873 3419.702637,3020.410889 
	C3419.526855,2997.086426 3419.663574,2973.759766 3419.663574,2950.434082 
	C3419.663574,2927.865479 3419.663330,2905.297119 3419.663330,2883.160645 
	C3413.748047,2878.944824 3408.250244,2881.016602 3401.529297,2878.595947 
	C3399.745605,2875.055420 3399.644043,2873.206055 3399.623535,2869.586182 
	C3399.290039,2858.004150 3400.883057,2848.050537 3398.365967,2837.635254 
	C3390.034424,2835.438965 3382.058838,2836.322998 3374.221924,2836.322266 
	C2882.634766,2836.276611 2391.047607,2836.281250 1899.460571,2836.281738 
	C1894.797852,2836.281738 1890.119995,2836.061523 1885.477051,2836.366943 
	C1881.722900,2836.614014 1878.010620,2837.498291 1874.036743,2838.139160 
	C1872.607788,2849.766113 1872.445068,2860.168213 1874.075073,2870.935059 
	C1882.390381,2874.494629 1890.437012,2873.062744 1898.209717,2873.067383 
	C2056.077148,2873.159180 2213.944580,2873.127686 2371.812012,2873.161621 
	C2379.794922,2873.163330 2387.777832,2873.537354 2395.811279,2874.898438 
	C2396.116455,2877.583740 2396.370850,2879.108887 2396.625000,2880.634033 
	C2396.305908,2887.933350 2395.720215,2895.232178 2395.709961,2902.531982 
	C2395.632080,2957.121094 2395.667236,3011.709961 2395.667236,3066.299072 
	C2395.667236,3072.890625 2395.667480,3079.482178 2395.667480,3086.496826 
	C2388.407227,3090.918457 2380.947998,3089.100586 2373.976807,3089.110840 
	C2276.116211,3089.254639 2178.255127,3089.196533 2080.394287,3089.233154 
	C2073.183594,3089.235840 2065.972900,3089.586914 2057.759033,3089.802246 
	C2055.309082,3098.928955 2056.579346,3107.520752 2056.381836,3115.939697 
	C2056.178711,3124.589355 2056.398682,3133.248047 2056.319092,3141.901611 
	C2056.240723,3150.411133 2056.018311,3158.919189 2055.837646,3168.579346 
	C2050.882568,3168.825684 2047.075806,3169.180664 2043.269165,3169.180420 
	C1849.545654,3169.162598 1655.822021,3169.114746 1462.098511,3169.064941 
	C1461.433960,3169.064941 1460.769531,3168.990723 1458.916992,3167.369629 
	C1462.416016,3161.047607 1467.080688,3156.284180 1471.794189,3151.569824 
	C1528.345215,3095.005371 1584.946777,3038.491211 1641.376587,2981.806152 
	C1645.824707,2977.338135 1652.565063,2974.118896 1652.611450,2965.657959 
	C1647.691895,2960.607910 1642.651245,2955.315674 1637.485840,2950.148438 
	C1553.604370,2866.242188 1469.683228,2782.375244 1385.872192,2698.398438 
	C1380.848145,2693.364502 1374.482544,2689.233154 1371.716553,2681.138184 
	C1385.846802,2666.935791 1399.904907,2652.777832 1413.994751,2638.652100 
	C1428.116333,2624.494873 1442.414307,2610.510254 1456.368042,2596.189941 
	C1470.145142,2582.050537 1485.176758,2569.049072 1498.276855,2552.569092 
	C1494.674683,2550.724365 1492.533691,2549.166260 1490.142578,2548.483887 
	C1479.905640,2545.561279 1469.594604,2542.897217 1459.311035,2540.137695 
	C1315.931274,2501.662598 1172.554199,2463.177246 1029.170166,2424.717773 
	C980.952576,2411.784668 932.728638,2398.874756 884.473511,2386.082764 
	C879.013184,2384.635010 873.359192,2381.317871 866.938171,2386.026123 
	C868.134399,2391.149902 869.186035,2396.317383 870.550049,2401.401123 
	C907.642517,2539.643066 944.752075,2677.880615 981.892883,2816.109619 
	C998.474731,2877.823486 1015.118958,2939.520752 1031.777710,3001.213623 
	C1032.915039,3005.425781 1032.628784,3010.641602 1039.925293,3012.616943 
	C1047.869629,3004.703369 1056.314087,2996.304443 1064.744141,2987.890869 
	C1073.235840,2979.415283 1081.713135,2970.925293 1090.196899,2962.441650 
	C1098.680542,2953.958008 1107.164185,2945.474365 1115.647827,2936.990723 
	C1124.131592,2928.507080 1132.536743,2919.943115 1141.121582,2911.562988 
	C1149.591675,2903.294434 1157.411133,2894.282959 1167.501221,2886.203125 
	C1173.115845,2891.398438 1178.063599,2895.679443 1182.679688,2900.291992 
	C1267.548584,2985.096191 1352.389526,3069.928467 1437.181030,3154.810059 
	C1441.380737,3159.014160 1445.078735,3163.719482 1449.010376,3168.191406 
	C1443.052246,3168.530273 1437.094238,3169.162842 1431.135986,3169.165527 
	C1304.678467,3169.222412 1178.220947,3169.218750 1051.763428,3169.175293 
	C1045.920776,3169.173340 1040.078247,3168.688477 1033.216797,3168.383301 
	C1031.207642,3142.457275 1033.199585,3117.278809 1031.909058,3091.197021 
	C1027.891113,3090.498047 1024.215088,3089.489746 1020.496643,3089.295654 
	C1014.522766,3088.983398 1008.520813,3089.209229 1002.530701,3089.208252 
	C786.887939,3089.170410 571.245178,3089.132568 353.454712,3087.738281 
	C350.619385,3085.272217 349.662903,3084.492920 348.437469,3084.043457 
	C348.179352,3079.410156 347.695770,3074.776611 347.695496,3070.143311 
	C347.682678,2850.659180 347.711761,2631.174805 349.434631,2410.100098 
	C358.714752,2412.809082 359.797546,2421.410645 363.980560,2427.957275 
	C369.673401,2436.866699 374.622498,2446.341064 381.084351,2454.643799 
	C387.059174,2462.320557 396.858826,2461.534180 403.566589,2454.287109 
	C408.782776,2448.651611 409.149811,2442.359375 405.750732,2435.918701 
	C400.529388,2426.024170 395.080444,2416.241699 389.452881,2406.572021 
	C383.305664,2396.009277 381.761230,2386.375732 389.643982,2375.238770 
	C396.471436,2365.592773 401.147949,2354.322510 406.037354,2343.438477 
	C410.167450,2334.244873 406.791321,2325.920654 398.316376,2321.610352 
	C391.315460,2318.049561 383.361816,2320.667480 377.921539,2328.924805 
	C375.017334,2333.333008 373.085480,2338.369141 370.463165,2342.978760 
	C365.882996,2351.029785 361.387085,2359.156250 356.250244,2366.846680 
	C354.653320,2369.237305 351.098724,2370.320557 348.440460,2372.002441 
	C348.181305,2366.693848 347.696960,2361.385010 347.695648,2356.076416 
	C347.655548,2194.807129 347.662964,2033.537842 347.662964,1872.268555 
	C347.662964,1866.386108 347.662964,1860.503662 347.662964,1855.864502 
	C349.549530,1854.188843 350.001404,1853.671509 350.559326,1853.325195 
	C351.088654,1852.996582 351.728790,1852.647461 352.320618,1852.646851 
	C442.946899,1852.540771 533.573181,1852.465332 625.820923,1854.093140 
	C624.839355,1863.244019 622.255859,1870.505249 617.963928,1877.422852 
	C611.048828,1888.568359 605.846008,1900.776367 600.425476,1911.531982 
	C604.854187,1921.153809 612.060791,1924.699463 619.734619,1926.898438 
	C622.277222,1927.627197 626.608032,1926.208130 628.490356,1924.223877 
	C631.585815,1920.961060 633.466797,1916.498657 635.654236,1912.431641 
	C640.627441,1903.185181 645.475891,1893.871338 649.969116,1885.354370 
	C668.252930,1881.387451 685.790466,1887.183472 703.462402,1881.084717 
	C703.703247,1871.538452 703.935730,1862.325073 704.168152,1853.111572 
	C732.221130,1852.871826 760.274170,1852.632080 790.139771,1854.361084 
	C791.982300,1859.635254 791.766541,1862.964722 792.086731,1866.241577 
	C793.200256,1877.635132 798.511719,1883.002808 809.353271,1883.897705 
	C811.324707,1884.060547 813.317993,1883.976562 815.301147,1883.976807 
	C845.051636,1883.980713 874.802063,1883.980713 904.552551,1883.977539 
	C906.535767,1883.977295 908.528748,1884.065674 910.500610,1883.906982 
	C924.086426,1882.812988 929.706726,1874.515503 926.227112,1860.691040 
	C925.585144,1858.140503 924.748840,1855.638794 924.002258,1853.114624 
	C949.437988,1852.875366 974.873657,1852.635986 1001.872681,1854.191650 
	C1002.404297,1859.130127 1000.790283,1862.212158 1000.450684,1865.428833 
	C999.459900,1874.815063 1005.438538,1882.390381 1014.719910,1883.657349 
	C1018.645996,1884.193237 1022.685242,1883.953979 1026.673462,1883.970093 
	C1036.651001,1884.010498 1046.632812,1884.168823 1056.605225,1883.945312 
	C1063.974121,1883.780273 1069.108521,1886.273315 1072.642578,1893.189697 
	C1078.068848,1903.809204 1084.778687,1913.781250 1090.049683,1924.468994 
	C1094.261963,1933.010010 1100.174316,1938.020142 1109.292603,1938.905640 
	C1117.312134,1934.485840 1121.093872,1927.802856 1122.960693,1919.988403 
	C1112.002563,1900.020996 1101.173462,1880.393066 1090.492554,1860.684692 
	C1089.258301,1858.407349 1088.847778,1855.683472 1088.055420,1853.166504 
M2711.761475,2620.588623 
	C2711.857910,2527.952881 2711.825195,2435.316406 2712.174316,2342.681641 
	C2712.234863,2326.653809 2711.502441,2310.798584 2707.803955,2295.237793 
	C2698.057129,2254.231934 2677.169189,2220.271973 2641.492920,2197.100342 
	C2611.238525,2177.449951 2576.812012,2168.504395 2541.236328,2168.342285 
	C2381.955566,2167.616211 2222.669678,2168.022217 2063.385498,2168.020752 
	C2061.386230,2168.020752 2059.365723,2167.853760 2057.392090,2168.083008 
	C2053.588867,2168.524902 2049.812012,2169.194580 2046.012695,2169.771484 
	C2042.832764,2178.524658 2044.006226,2186.564209 2044.001221,2194.414062 
	C2043.922607,2316.376221 2043.945312,2438.338623 2043.947388,2560.300781 
	C2043.947754,2578.295166 2043.877686,2596.290283 2044.038086,2614.283447 
	C2044.072021,2618.093994 2044.972046,2621.896729 2045.443115,2625.476807 
	C2048.410889,2626.494873 2050.239990,2627.664062 2052.073242,2627.670410 
	C2082.725586,2627.779053 2113.378174,2627.775146 2144.030273,2627.653564 
	C2145.853271,2627.646484 2147.671631,2626.433838 2150.075684,2625.573242 
	C2153.139648,2618.692871 2151.925781,2611.287354 2151.931641,2604.134521 
	C2152.017578,2501.499512 2151.989502,2398.864746 2151.991943,2296.229736 
	C2151.992188,2290.898193 2151.690186,2285.538330 2152.143311,2280.244385 
	C2152.464111,2276.498047 2153.823486,2272.840820 2154.648682,2269.434082 
	C2157.655273,2268.854492 2159.599365,2268.155273 2161.544434,2268.152100 
	C2212.193604,2268.071289 2262.842773,2268.018311 2313.491699,2268.151123 
	C2316.546387,2268.159180 2319.596924,2269.749023 2323.574463,2270.861816 
	C2323.717773,2278.780273 2323.961670,2286.035645 2323.963623,2293.291016 
	C2323.988770,2392.593750 2323.979492,2491.896240 2323.982422,2591.198975 
	C2323.982666,2599.196533 2323.777100,2607.203857 2324.121094,2615.187012 
	C2324.283447,2618.950928 2325.522461,2622.668457 2326.519287,2627.629150 
	C2344.515869,2628.319092 2361.775879,2628.360107 2378.983887,2627.866455 
	C2396.015381,2627.378174 2413.308838,2630.437500 2431.418457,2625.464600 
	C2431.629150,2617.646729 2431.987549,2610.432861 2431.992188,2603.218994 
	C2432.036377,2537.239502 2432.019043,2471.259766 2432.019531,2405.280273 
	C2432.019775,2364.626221 2431.946777,2323.971680 2432.101318,2283.318115 
	C2432.123535,2277.533691 2430.440430,2271.259521 2435.713135,2265.199463 
	C2439.473877,2264.851074 2443.998291,2264.107178 2448.528564,2264.069580 
	C2465.855225,2263.926270 2483.184082,2263.992188 2500.511963,2264.014160 
	C2521.417480,2264.040771 2541.491943,2269.081055 2560.420410,2277.069092 
	C2573.868408,2282.743896 2584.968262,2292.242676 2591.643311,2306.540527 
	C2599.370850,2323.093018 2604.165039,2339.839355 2604.111816,2358.249756 
	C2603.875732,2440.223633 2603.975830,2522.198975 2604.068848,2604.173584 
	C2604.077148,2611.324707 2602.858398,2618.730713 2605.934082,2625.589355 
	C2608.361816,2626.448975 2610.182129,2627.647461 2612.008789,2627.657471 
	C2641.995605,2627.822998 2671.984131,2627.942871 2701.969727,2627.723389 
	C2704.909180,2627.701904 2707.831543,2625.387939 2711.761475,2620.588623 
M2998.000977,2168.019531 
	C2967.518799,2169.450928 2937.062256,2166.182617 2906.467041,2171.508057 
	C2861.502441,2179.334717 2822.781006,2196.358643 2795.457275,2234.440674 
	C2776.875244,2260.338867 2764.575684,2288.514648 2763.938232,2320.961426 
	C2763.860107,2324.943115 2764.307129,2329.285645 2762.902344,2332.822510 
	C2759.305908,2341.880615 2760.083496,2351.181885 2760.079834,2360.455078 
	C2760.034668,2473.748047 2760.050049,2587.040771 2760.050537,2700.333740 
	C2760.050537,2727.657471 2759.986572,2754.981201 2760.112549,2782.304443 
	C2760.135986,2787.406494 2760.923828,2792.504883 2761.364746,2797.672363 
	C2776.362549,2795.502930 2852.336914,2771.572266 2867.332275,2764.333984 
	C2867.559570,2758.329102 2868.008057,2751.766357 2868.022705,2745.202637 
	C2868.097168,2711.881104 2867.987061,2678.559570 2868.136963,2645.238525 
	C2868.159912,2640.143066 2869.201660,2635.052002 2869.916260,2628.673584 
	C2878.260986,2628.428711 2885.452637,2628.038574 2892.644043,2628.034668 
	C2973.948486,2627.987793 3055.254883,2627.693359 3136.555420,2628.256104 
	C3152.717041,2628.367920 3168.820068,2626.703613 3183.851562,2622.818604 
	C3223.832520,2612.485596 3259.322510,2594.066162 3283.155029,2557.883789 
	C3301.605225,2529.872803 3311.347656,2499.333740 3311.865723,2466.112793 
	C3312.520264,2424.137695 3312.062500,2382.145264 3312.033691,2340.160156 
	C3312.024414,2326.888916 3311.127441,2313.873047 3308.563721,2300.622314 
	C3300.290039,2257.861084 3277.566406,2225.040283 3243.151123,2199.577393 
	C3212.513672,2176.909424 3176.770020,2169.459229 3139.941162,2168.355225 
	C3093.998779,2166.977783 3047.984131,2168.021240 2998.000977,2168.019531 
M3863.949219,2402.002930 
	C3863.949219,2385.340576 3864.603516,2368.645020 3863.764404,2352.024902 
	C3862.931396,2335.522705 3861.643555,2318.905029 3858.677979,2302.680908 
	C3854.084473,2277.548828 3844.085205,2254.238525 3828.682617,2233.769043 
	C3821.151611,2223.760498 3812.819336,2213.801270 3803.030518,2206.145996 
	C3769.946289,2180.272217 3730.899658,2169.036377 3689.822998,2168.421143 
	C3603.197510,2167.122803 3516.539551,2168.003174 3429.894775,2168.067871 
	C3424.685303,2168.071777 3419.476074,2168.764648 3413.311035,2169.205566 
	C3413.311035,2172.668945 3412.666504,2175.408691 3413.448486,2177.650879 
	C3414.974365,2182.025635 3417.230957,2186.155518 3419.303955,2190.327881 
	C3428.196777,2208.225342 3437.130371,2226.102783 3446.053711,2243.985107 
	C3457.122070,2266.166260 3454.594727,2263.881104 3479.413330,2264.002930 
	C3482.079346,2264.015869 3484.745361,2264.004883 3487.411377,2264.004883 
	C3528.734131,2264.004883 3570.057861,2263.857666 3611.379639,2264.063721 
	C3633.924072,2264.176270 3656.328369,2263.946777 3678.924316,2267.509033 
	C3715.776123,2273.318604 3741.103516,2293.389404 3750.596191,2330.043457 
	C3752.729004,2338.278076 3754.084473,2346.919678 3747.978760,2356.019531 
	C3740.958984,2356.019531 3733.695801,2356.019531 3726.432861,2356.019531 
	C3644.453613,2356.019531 3562.473877,2356.194824 3480.496094,2355.845215 
	C3466.968506,2355.787598 3453.930908,2357.631592 3441.293213,2361.667725 
	C3406.906738,2372.650635 3383.802734,2396.501709 3368.524902,2428.329102 
	C3358.285156,2449.660889 3354.009766,2472.356689 3355.918701,2496.106689 
	C3356.712646,2505.984619 3356.275391,2515.752686 3358.326660,2525.773193 
	C3364.169189,2554.315186 3378.410889,2577.194092 3398.972900,2597.385742 
	C3420.147461,2618.179443 3444.989014,2628.020752 3474.265381,2628.009766 
	C3549.579590,2627.981201 3624.893799,2628.003662 3700.208008,2628.004639 
	C3747.529297,2628.005371 3794.850830,2628.064209 3842.171631,2627.934814 
	C3848.650146,2627.917236 3855.480713,2629.494629 3861.128174,2625.914795 
	C3862.053711,2624.167969 3863.183594,2623.028564 3863.188477,2621.884521 
	C3863.500488,2549.923828 3863.720459,2477.962891 3863.949219,2402.002930 
M3924.009766,2094.000000 
	C3924.009766,2261.989746 3924.009277,2429.979492 3924.011719,2597.969238 
	C3924.011719,2603.968750 3923.702881,2609.995117 3924.177490,2615.958008 
	C3924.472900,2619.674561 3925.971191,2623.295410 3927.029541,2627.341553 
	C3960.565674,2627.341553 3993.165527,2627.384277 4025.764404,2627.219727 
	C4027.451904,2627.211182 4029.130615,2625.428955 4032.056641,2623.765625 
	C4032.056641,2616.251709 4032.056396,2608.309570 4032.056396,2600.367432 
	C4032.056396,2391.713379 4032.057373,2183.059570 4032.054688,1974.405518 
	C4032.054443,1969.072632 4032.138916,1963.735718 4031.956055,1958.408569 
	C4031.846680,1955.219360 4032.235352,1951.630493 4028.409180,1950.002197 
	C3991.375244,1958.231445 3940.789551,1974.972168 3924.009766,1984.825562 
	C3924.009766,2019.441284 3924.009766,2054.720703 3924.009766,2094.000000 
M1980.053711,2454.000000 
	C1980.053711,2315.457764 1980.054199,2176.915527 1980.052002,2038.373169 
	C1980.051880,2032.378662 1980.330200,2026.362427 1979.904175,2020.397461 
	C1979.636475,2016.650391 1978.294922,2012.980103 1977.578125,2009.891724 
	C1975.146484,2009.095093 1973.893555,2008.329468 1972.638306,2008.325439 
	C1942.005127,2008.225342 1911.371582,2008.150024 1880.739014,2008.282104 
	C1878.333130,2008.292480 1875.933838,2009.850830 1872.452515,2011.066772 
	C1872.315674,2019.307983 1872.071167,2027.204346 1872.070312,2035.100708 
	C1872.048950,2223.598145 1872.053589,2412.095459 1872.054810,2600.592773 
	C1872.054932,2605.255127 1871.853394,2609.931396 1872.147461,2614.575684 
	C1872.388306,2618.382324 1873.228149,2622.150635 1873.857178,2626.296387 
	C1885.947266,2629.325928 1897.264526,2627.668213 1908.427979,2627.939209 
	C1920.410156,2628.230225 1932.412354,2628.269287 1944.391846,2627.927490 
	C1955.496460,2627.610840 1966.824219,2629.547363 1976.928345,2626.583496 
	C1978.209717,2624.090820 1979.311279,2622.945068 1979.317749,2621.792969 
	C1979.622803,2567.195557 1979.832886,2512.597900 1980.053711,2454.000000 
M699.613037,2277.837158 
	C678.706177,2314.894043 670.016724,2354.289307 675.190979,2396.867432 
	C679.745911,2434.348877 693.748230,2467.436768 717.879883,2496.316162 
	C743.876099,2527.427246 776.607788,2548.133789 815.663635,2558.743164 
	C821.067017,2560.211182 827.030212,2562.996094 833.423523,2557.504639 
	C828.411743,2538.489990 823.353210,2519.222168 818.253296,2499.965088 
	C809.223511,2465.870117 800.321655,2431.740234 791.079712,2397.702393 
	C782.412598,2365.781494 801.130737,2318.278320 849.470398,2306.968506 
	C864.431702,2303.468262 878.563293,2305.804932 892.786072,2309.607178 
	C943.570679,2323.184082 994.315430,2336.909668 1045.120850,2350.407959 
	C1047.873413,2351.139404 1051.039673,2350.313477 1054.637085,2350.191406 
	C1053.108643,2341.512207 1052.360962,2334.180908 1050.497437,2327.145020 
	C1020.990112,2215.737305 906.166870,2156.914307 799.537415,2194.574951 
	C757.087708,2209.567627 724.800415,2237.332031 699.613037,2277.837158 
M4270.608398,2295.926025 
	C4267.312988,2295.583740 4264.017578,2294.949219 4260.721680,2294.943604 
	C4220.729004,2294.877930 4180.736328,2294.884033 4140.743652,2294.946777 
	C4137.466797,2294.952148 4134.190430,2295.508301 4130.836426,2295.815674 
	C4115.301758,2312.735107 4100.229980,2329.609863 4084.659424,2346.011475 
	C4054.255859,2378.037842 4059.821777,2424.280273 4084.753662,2450.900635 
	C4136.203613,2505.834961 4186.401367,2561.946777 4236.740234,2617.910400 
	C4243.151855,2625.038086 4249.707520,2627.939697 4259.111328,2627.850586 
	C4298.434082,2627.477783 4337.762207,2627.719482 4377.088379,2627.634521 
	C4380.108887,2627.627930 4383.865723,2628.852539 4386.139160,2623.118408 
	C4353.257324,2586.598145 4319.808105,2549.646973 4286.585938,2512.493164 
	C4252.898438,2474.819336 4218.392578,2437.861328 4185.179688,2399.053955 
	C4188.141602,2395.052490 4190.226562,2391.736084 4192.794434,2388.849121 
	C4206.960938,2372.920654 4221.351074,2357.189941 4235.457520,2341.208252 
	C4247.773438,2327.254639 4259.814941,2313.058838 4270.608398,2295.926025 
M4323.615234,2887.912109 
	C4328.083984,2886.644775 4332.691406,2885.732910 4336.996094,2884.046387 
	C4352.958008,2877.791504 4363.411621,2866.123535 4367.676270,2849.691162 
	C4372.766113,2830.078125 4373.143066,2810.089600 4367.732422,2790.482666 
	C4361.635254,2768.389160 4346.444824,2755.715088 4323.979492,2752.104492 
	C4316.133789,2750.843506 4308.083008,2750.430420 4300.122070,2750.393799 
	C4262.854492,2750.222656 4225.584961,2750.266602 4188.316406,2750.384521 
	C4183.812500,2750.398926 4179.311523,2751.327637 4174.865723,2751.825928 
	C4174.117676,2754.571777 4173.172363,2756.426758 4173.169922,2758.282715 
	C4173.083496,2822.835693 4173.072754,2887.388916 4173.144043,2951.941895 
	C4173.145996,2953.801270 4174.155273,2955.659912 4174.639160,2957.327393 
	C4190.903809,2960.741211 4195.672852,2960.668945 4210.373047,2956.615234 
	C4210.587891,2950.409180 4211.002441,2943.856445 4211.010742,2937.303223 
	C4211.069824,2892.713867 4210.972168,2848.124268 4211.131836,2803.535400 
	C4211.152344,2797.841553 4209.327637,2791.482666 4215.761719,2785.781982 
	C4243.281738,2785.781982 4271.864258,2785.701904 4300.444824,2785.875000 
	C4304.376953,2785.898926 4308.362305,2786.942871 4312.219238,2787.922119 
	C4322.960449,2790.650635 4329.370605,2797.920654 4331.692871,2808.438721 
	C4332.823242,2813.557617 4332.964355,2819.038818 4332.659180,2824.304199 
	C4331.668457,2841.408447 4324.365234,2850.058838 4307.582520,2852.631836 
	C4297.791016,2854.133057 4287.725098,2853.917725 4277.775391,2854.287598 
	C4265.277344,2854.752441 4252.685547,2853.524658 4240.588867,2855.067871 
	C4234.644531,2866.058350 4228.277832,2875.341553 4225.858398,2886.456299 
	C4227.841309,2887.235352 4229.032227,2888.109131 4230.226074,2888.113281 
	C4260.170898,2888.213867 4290.115723,2888.222656 4323.615234,2887.912109 
M4017.010742,2802.185791 
	C4021.053955,2809.610107 4020.533691,2817.717041 4020.017090,2825.644287 
	C4018.999023,2841.269775 4011.302246,2850.023926 3995.650391,2852.596924 
	C3987.172119,2853.990967 3978.438232,2853.992920 3969.808350,2854.267822 
	C3955.945801,2854.709473 3942.020020,2853.666748 3928.327148,2854.979736 
	C3922.216064,2865.602295 3916.478516,2875.147461 3913.235596,2885.768311 
	C3915.221436,2886.907227 3916.275879,2888.038086 3917.336182,2888.043457 
	C3947.300781,2888.191650 3977.291260,2889.012695 4007.223389,2888.042725 
	C4033.646484,2887.186279 4053.614990,2868.286621 4056.527344,2841.739746 
	C4058.111328,2827.300049 4058.055908,2812.401367 4056.481689,2797.955811 
	C4053.757568,2772.957520 4035.782715,2755.556152 4010.978027,2751.972168 
	C4003.753418,2750.928223 3996.391602,2750.423096 3989.089844,2750.393799 
	C3951.129150,2750.241455 3913.167480,2750.255859 3875.207031,2750.413574 
	C3870.800293,2750.431885 3866.399170,2751.697754 3862.213623,2752.351074 
	C3861.690186,2755.496826 3861.082764,2757.450439 3861.080811,2759.404541 
	C3861.016602,2822.672607 3860.983154,2885.940674 3861.080078,2949.208496 
	C3861.084717,2952.335449 3862.305420,2955.460449 3862.997559,2958.766602 
	C3874.926025,2960.078613 3885.977051,2960.688965 3898.145264,2958.302734 
	C3898.465820,2951.036865 3898.991699,2944.517578 3899.002441,2937.997314 
	C3899.076416,2893.376221 3898.989258,2848.754883 3899.108154,2804.134277 
	C3899.123535,2798.314453 3897.674072,2792.072998 3903.033691,2785.959473 
	C3931.388428,2785.959473 3960.651367,2785.655762 3989.902100,2786.124268 
	C4000.129395,2786.288086 4009.558105,2789.841797 4017.010742,2802.185791 
M3584.739014,2838.705811 
	C3567.067871,2873.775391 3549.340332,2908.816895 3531.795410,2943.949219 
	C3529.548340,2948.448486 3525.330566,2952.853271 3529.071533,2959.024902 
	C3541.384521,2959.024902 3553.908447,2959.024902 3566.951172,2959.024902 
	C3570.210693,2952.812012 3573.338623,2946.972900 3576.350586,2941.074707 
	C3579.377686,2935.146729 3582.273193,2929.151367 3585.256836,2923.201172 
	C3588.240479,2917.250977 3591.271484,2911.324463 3594.264404,2905.378906 
	C3596.958008,2900.027588 3599.627930,2894.664551 3602.309082,2889.306885 
	C3605.288330,2883.353760 3608.273926,2877.404053 3611.246826,2871.447998 
	C3614.219727,2865.491943 3617.185303,2859.531982 3620.144775,2853.569336 
	C3623.104492,2847.606689 3625.852051,2841.527832 3629.063477,2835.704590 
	C3632.099365,2830.198975 3633.882324,2823.741455 3639.801270,2818.653564 
	C3646.256836,2826.208984 3649.073242,2834.385010 3653.026611,2841.855957 
	C3657.385010,2850.092041 3661.980469,2858.229004 3665.822998,2866.703857 
	C3669.267822,2874.302002 3675.330078,2881.062988 3675.010254,2891.607910 
	C3656.517578,2891.607910 3638.712646,2891.607910 3620.129395,2891.607910 
	C3614.899658,2902.291260 3610.032715,2912.233643 3604.325195,2923.892822 
	C3611.495605,2924.608643 3616.628662,2925.518311 3621.769531,2925.563477 
	C3641.749756,2925.739258 3661.733643,2925.553223 3681.714355,2925.710693 
	C3686.248047,2925.746338 3690.775146,2926.618896 3695.505859,2927.127930 
	C3701.455811,2938.121582 3707.119873,2948.587402 3712.766113,2959.020264 
	C3726.085693,2959.020264 3738.585205,2959.020264 3750.743896,2959.020264 
	C3753.966309,2952.406982 3749.782227,2948.030518 3747.523926,2943.513672 
	C3718.354248,2885.170410 3689.039307,2826.899658 3659.679199,2768.652100 
	C3657.597168,2764.521484 3655.360107,2760.288574 3652.348145,2756.843994 
	C3645.446289,2748.951416 3632.446289,2749.476562 3626.156250,2757.914062 
	C3623.007324,2762.137939 3620.738770,2767.056641 3618.348877,2771.800293 
	C3607.566406,2793.201416 3596.883057,2814.652344 3584.739014,2838.705811 
M548.577209,2705.362061 
	C539.172302,2687.840088 529.702820,2670.352295 520.378052,2652.787842 
	C507.317627,2628.187012 494.364655,2603.529053 481.366821,2578.895020 
	C480.746948,2577.719727 480.220825,2576.486328 479.511078,2575.368896 
	C473.305908,2565.600098 459.599182,2565.012939 452.979462,2574.539551 
	C450.816864,2577.651855 449.980713,2581.686035 448.663574,2584.983887 
	C451.956665,2591.680664 454.748749,2597.706787 457.836700,2603.576904 
	C469.567291,2625.876465 481.345947,2648.150879 493.198364,2670.385742 
	C503.178131,2689.107666 513.285583,2707.761475 523.335571,2726.445801 
	C523.964233,2727.614502 524.477173,2728.861816 525.227722,2729.945312 
	C529.115112,2735.557373 537.711548,2737.742432 544.904480,2735.009277 
	C550.843994,2732.752441 555.726135,2723.702148 554.085449,2717.012939 
	C553.310486,2713.853027 551.373413,2710.978271 548.577209,2705.362061 
M524.063232,2054.075439 
	C508.072113,2083.982910 492.130493,2113.916748 476.065399,2143.784424 
	C469.769897,2155.488770 463.133057,2167.009277 456.783173,2178.685059 
	C454.239624,2183.362061 451.786896,2188.126709 449.815582,2193.060303 
	C448.888092,2195.381592 448.291809,2198.539307 449.118774,2200.721924 
	C451.338837,2206.581299 455.568420,2210.881348 462.144562,2211.737305 
	C469.033661,2212.634033 475.473175,2212.088623 479.444427,2204.992432 
	C484.636871,2195.713623 490.292419,2186.687500 495.305664,2177.315674 
	C514.756226,2140.954102 533.966553,2104.463867 553.451416,2068.120850 
	C555.968506,2063.426025 555.558105,2059.454346 553.370605,2054.944092 
	C550.482422,2048.989014 545.624512,2045.850464 539.486877,2044.692505 
	C533.290588,2043.523193 529.911499,2048.317383 524.063232,2054.075439 
M1181.796631,2096.310303 
	C1199.034546,2129.207764 1216.238159,2162.123291 1233.553711,2194.979736 
	C1235.702148,2199.056396 1238.022583,2203.183594 1241.005737,2206.647949 
	C1246.103638,2212.568848 1256.545166,2214.004639 1262.847046,2209.900391 
	C1268.856812,2205.986328 1268.775635,2199.593262 1267.509766,2193.770752 
	C1266.406372,2188.694824 1263.919922,2183.821533 1261.485718,2179.150146 
	C1248.309692,2153.864990 1235.028687,2128.633789 1221.645020,2103.458252 
	C1213.246582,2087.659424 1204.666748,2071.956055 1196.012695,2056.295898 
	C1194.434814,2053.440186 1192.395020,2050.705078 1190.067749,2048.425049 
	C1184.315674,2042.789917 1176.473389,2042.759399 1170.352051,2047.983887 
	C1164.535156,2052.948486 1162.275879,2058.882568 1165.349731,2065.732178 
	C1169.682373,2075.386719 1175.051025,2084.576660 1181.796631,2096.310303 
M622.083191,2912.173828 
	C626.904785,2924.284424 635.632446,2928.914062 648.744141,2928.258057 
	C666.029175,2927.393066 683.389954,2927.957520 700.717163,2928.065918 
	C706.316345,2928.101074 711.139587,2926.783447 715.184448,2922.661621 
	C720.279419,2917.469727 720.784851,2912.264404 716.414673,2906.718262 
	C710.746399,2899.524170 704.023621,2895.457764 694.188782,2895.869385 
	C679.656921,2896.477539 665.070618,2895.784180 650.904236,2895.648926 
	C648.149109,2891.026123 646.065674,2887.650879 644.099548,2884.208740 
	C638.496338,2874.399170 633.146423,2864.437988 627.309143,2854.770508 
	C621.389404,2844.966797 613.448853,2841.775146 605.823303,2845.508789 
	C596.737976,2849.957031 594.099060,2858.457031 598.792114,2869.170410 
	C600.925293,2874.040283 603.494324,2878.731201 606.056213,2883.398682 
	C610.849670,2892.131836 615.781921,2900.788574 622.083191,2912.173828 
M850.104797,2896.058594 
	C838.801331,2896.062012 827.468506,2895.583252 816.206604,2896.269043 
	C810.439880,2896.620117 804.445251,2898.292480 799.190613,2900.736816 
	C792.241699,2903.969238 790.355408,2911.077148 792.767761,2919.752197 
	C794.130310,2924.652100 798.098328,2927.316162 805.030273,2927.925781 
	C806.352051,2928.042480 807.687927,2928.026123 809.017273,2928.026367 
	C841.597839,2928.034424 874.178528,2928.064209 906.758972,2927.996582 
	C910.046692,2927.989746 913.465271,2927.849854 916.592529,2926.960693 
	C922.873352,2925.174561 927.633911,2918.377686 927.723877,2911.999512 
	C927.810303,2905.873047 924.589600,2901.682373 919.166870,2899.878174 
	C913.614136,2898.031006 907.720703,2896.409668 901.929016,2896.231934 
	C885.986206,2895.742432 870.018494,2896.060059 850.104797,2896.058594 
M1335.224976,2387.099121 
	C1336.461792,2396.532959 1329.589355,2403.065186 1326.582397,2410.971680 
	C1324.650879,2416.050537 1322.624146,2420.852539 1326.703003,2426.172607 
	C1331.505249,2427.605713 1336.487183,2429.273193 1341.565186,2430.563232 
	C1348.357056,2432.289307 1351.645020,2431.089355 1355.096924,2425.569336 
	C1359.306885,2418.836914 1363.242065,2411.933350 1367.351074,2405.137451 
	C1372.146240,2397.206299 1373.284058,2389.441895 1368.518799,2380.751709 
	C1361.505127,2367.960938 1355.459961,2354.642334 1348.637085,2341.741943 
	C1345.553833,2335.912109 1341.891602,2330.323486 1337.946411,2325.032227 
	C1333.766724,2319.426514 1326.133301,2318.625977 1320.140503,2322.509766 
	C1312.658325,2327.359131 1309.935913,2334.663574 1313.848389,2343.240723 
	C1320.178223,2357.117432 1327.305054,2370.630615 1335.224976,2387.099121 
z"/>
<path fill="#0086EB" opacity="1.000000" stroke="none" 
	d="
M1450.225342,3168.674316 
	C1445.078735,3163.719482 1441.380737,3159.014160 1437.181030,3154.810059 
	C1352.389526,3069.928467 1267.548584,2985.096191 1182.679688,2900.291992 
	C1178.063599,2895.679443 1173.115845,2891.398438 1167.501221,2886.203125 
	C1157.411133,2894.282959 1149.591675,2903.294434 1141.121582,2911.562988 
	C1132.536743,2919.943115 1124.131592,2928.507080 1115.647827,2936.990723 
	C1107.164185,2945.474365 1098.680542,2953.958008 1090.196899,2962.441650 
	C1081.713135,2970.925293 1073.235840,2979.415283 1064.744141,2987.890869 
	C1056.314087,2996.304443 1047.869629,3004.703369 1039.925293,3012.616943 
	C1032.628784,3010.641602 1032.915039,3005.425781 1031.777710,3001.213623 
	C1015.118958,2939.520752 998.474731,2877.823486 981.892883,2816.109619 
	C944.752075,2677.880615 907.642517,2539.643066 870.550049,2401.401123 
	C869.186035,2396.317383 868.134399,2391.149902 866.938171,2386.026123 
	C873.359192,2381.317871 879.013184,2384.635010 884.473511,2386.082764 
	C932.728638,2398.874756 980.952576,2411.784668 1029.170166,2424.717773 
	C1172.554199,2463.177246 1315.931274,2501.662598 1459.311035,2540.137695 
	C1469.594604,2542.897217 1479.905640,2545.561279 1490.142578,2548.483887 
	C1492.533691,2549.166260 1494.674683,2550.724365 1498.276855,2552.569092 
	C1485.176758,2569.049072 1470.145142,2582.050537 1456.368042,2596.189941 
	C1442.414307,2610.510254 1428.116333,2624.494873 1413.994751,2638.652100 
	C1399.904907,2652.777832 1385.846802,2666.935791 1371.716553,2681.138184 
	C1374.482544,2689.233154 1380.848145,2693.364502 1385.872192,2698.398438 
	C1469.683228,2782.375244 1553.604370,2866.242188 1637.485840,2950.148438 
	C1642.651245,2955.315674 1647.691895,2960.607910 1652.611450,2965.657959 
	C1652.565063,2974.118896 1645.824707,2977.338135 1641.376587,2981.806152 
	C1584.946777,3038.491211 1528.345215,3095.005371 1471.794189,3151.569824 
	C1467.080688,3156.284180 1462.416016,3161.047607 1457.116211,3166.944092 
	C1454.815674,3168.452393 1453.127930,3168.804932 1450.225342,3168.674316 
z"/>
<path fill="#061724" opacity="1.000000" stroke="none" 
	d="
M4679.893555,2626.216309 
	C4660.838867,2628.024170 4642.176270,2627.511230 4623.546875,2628.087402 
	C4602.089355,2628.750977 4581.081543,2625.697021 4560.724121,2619.864990 
	C4509.735840,2605.257568 4473.020508,2574.668213 4455.104004,2523.267578 
	C4447.577148,2501.674561 4443.443848,2480.038330 4443.732910,2457.033447 
	C4444.435547,2401.097656 4443.976562,2345.147217 4443.941895,2289.202637 
	C4443.937500,2281.965576 4443.673340,2274.728516 4443.554688,2268.749268 
	C4437.476562,2262.392822 4431.144531,2264.084961 4425.375977,2264.060059 
	C4390.078613,2263.907959 4354.779785,2263.981201 4319.481445,2263.980713 
	C4274.858887,2263.979980 4230.236816,2264.025635 4185.614258,2263.930176 
	C4179.178711,2263.916504 4172.504883,2265.042480 4167.018066,2262.642822 
	C4164.473145,2257.604980 4167.208984,2255.201904 4169.370605,2252.872070 
	C4188.793945,2231.932617 4208.311523,2211.080811 4227.754395,2190.158936 
	C4230.462402,2187.244629 4233.664062,2184.455811 4235.347656,2180.983398 
	C4240.915039,2169.500977 4250.390625,2167.802490 4261.912598,2167.881348 
	C4314.524414,2168.241211 4367.140625,2168.074219 4419.754883,2167.997559 
	C4426.938477,2167.987305 4434.297363,2168.989990 4440.893555,2166.451416 
	C4445.592285,2159.756592 4443.862305,2152.889160 4443.881836,2146.432861 
	C4444.027344,2097.814697 4443.935547,2049.196045 4443.972656,2000.577515 
	C4443.988770,1980.076660 4444.018066,1979.976196 4464.258789,1973.887817 
	C4490.930664,1965.865234 4517.652344,1958.006104 4544.371582,1950.142334 
	C4545.553711,1949.794312 4546.927246,1950.097656 4549.227539,1950.097656 
	C4553.682129,1954.515625 4551.862305,1960.800293 4551.875977,1966.388184 
	C4552.018555,2024.996338 4551.965332,2083.604980 4551.966309,2142.213623 
	C4551.966309,2149.491943 4551.966309,2156.770020 4551.966309,2162.389160 
	C4557.160645,2169.040283 4562.775391,2167.982178 4567.947754,2167.991211 
	C4603.912109,2168.053223 4639.876465,2167.997559 4677.685059,2167.982910 
	C4679.810547,2198.776367 4680.091797,2229.566162 4678.103516,2262.196777 
	C4639.910645,2264.021484 4603.986328,2263.958496 4568.062012,2264.041992 
	C4562.906738,2264.053955 4557.249512,2262.848633 4551.966309,2269.527832 
	C4551.966309,2282.428711 4551.965332,2297.016846 4551.965820,2311.604980 
	C4551.968750,2356.177734 4551.617676,2400.754395 4552.077148,2445.322510 
	C4552.522949,2488.547119 4574.211426,2516.011230 4614.321289,2526.838867 
	C4627.107422,2530.290527 4640.025879,2533.166260 4653.550781,2532.150635 
	C4662.152832,2531.504883 4670.838379,2531.974854 4679.486816,2531.944580 
	C4679.758301,2562.755371 4680.029297,2593.566406 4679.893555,2626.216309 
z"/>
<path fill="none" opacity="1.000000" stroke="none" 
	d="
M4679.870117,2530.107910 
	C4670.838379,2531.974854 4662.152832,2531.504883 4653.550781,2532.150635 
	C4640.025879,2533.166260 4627.107422,2530.290527 4614.321289,2526.838867 
	C4574.211426,2516.011230 4552.522949,2488.547119 4552.077148,2445.322510 
	C4551.617676,2400.754395 4551.968750,2356.177734 4551.965820,2311.604980 
	C4551.965332,2297.016846 4551.966309,2282.428711 4551.966309,2269.527832 
	C4557.249512,2262.848633 4562.906738,2264.053955 4568.062012,2264.041992 
	C4603.986328,2263.958496 4639.910645,2264.021484 4677.678711,2264.030273 
	C4679.792969,2268.635742 4680.298340,2273.248291 4680.299805,2277.861084 
	C4680.320801,2361.331299 4680.280273,2444.801270 4679.870117,2530.107910 
z"/>
<path fill="#0083E4" opacity="1.000000" stroke="none" 
	d="
M4680.040039,2920.726562 
	C4678.124512,2924.542480 4676.388672,2926.602295 4675.212891,2928.943359 
	C4664.806641,2949.660645 4646.822266,2957.880371 4624.891602,2959.621582 
	C4622.239746,2959.832275 4619.562012,2959.734375 4616.895996,2959.734863 
	C4576.230957,2959.741211 4535.566406,2959.757812 4494.901367,2959.715088 
	C4490.942383,2959.710938 4486.983398,2959.334229 4482.958008,2959.127197 
	C4485.419434,2945.407227 4487.435547,2941.008057 4499.015137,2924.254883 
	C4518.322266,2924.254883 4538.291504,2924.255127 4558.261230,2924.254883 
	C4574.927246,2924.254883 4591.592773,2924.267090 4608.258789,2924.245117 
	C4612.257324,2924.239990 4616.271973,2924.329834 4620.250977,2924.017334 
	C4642.307129,2922.286377 4645.925781,2905.319336 4643.268555,2891.711914 
	C4641.639160,2883.370605 4636.893066,2876.856445 4628.054688,2874.994629 
	C4621.597168,2873.634277 4614.949219,2872.590576 4608.371582,2872.502930 
	C4585.709961,2872.201660 4563.038086,2872.609131 4540.377930,2872.256348 
	C4532.456055,2872.133057 4524.358398,2871.403076 4516.685547,2869.535889 
	C4497.555664,2864.880859 4485.586426,2852.115967 4479.936035,2833.600342 
	C4475.564941,2819.278320 4475.536621,2804.699951 4479.802734,2790.248047 
	C4486.336426,2768.114746 4501.518555,2755.741699 4523.899902,2752.053223 
	C4531.099121,2750.866943 4538.497559,2750.478516 4545.808105,2750.446533 
	C4581.805664,2750.289307 4617.804199,2750.347656 4653.802734,2750.422119 
	C4656.931641,2750.428711 4660.059082,2751.105469 4664.504883,2751.624756 
	C4661.240723,2764.059326 4654.330566,2773.051514 4650.072754,2783.950684 
	C4645.159668,2784.546875 4640.676758,2785.538086 4636.187988,2785.562256 
	C4608.856934,2785.710205 4581.522949,2785.518555 4554.192383,2785.719238 
	C4546.901367,2785.772949 4539.505371,2786.197754 4532.356445,2787.526123 
	C4521.348145,2789.571777 4516.342773,2795.173096 4514.990723,2806.371826 
	C4514.444824,2810.892334 4514.974609,2815.621338 4515.566895,2820.183838 
	C4516.640625,2828.457764 4522.170410,2833.333008 4529.709473,2835.219971 
	C4535.438477,2836.654053 4541.570312,2836.868652 4547.529297,2836.927246 
	C4567.526855,2837.123291 4587.528320,2836.909424 4607.525879,2837.063721 
	C4614.166016,2837.114990 4620.803223,2837.760742 4627.437012,2838.210938 
	C4644.171875,2839.345703 4658.378906,2845.653076 4670.543945,2860.852051 
	C4674.437012,2867.588867 4677.012207,2872.246094 4679.586914,2876.903076 
	C4679.883789,2890.968994 4680.181152,2905.034912 4680.040039,2920.726562 
z"/>
<path fill="#06243B" opacity="1.000000" stroke="none" 
	d="
M2398.451172,2880.684570 
	C2396.370850,2879.108887 2396.116455,2877.583740 2397.636719,2874.379639 
	C2407.394287,2872.592773 2415.376709,2872.391113 2423.359375,2872.390625 
	C2740.124268,2872.374756 3056.888916,2872.385254 3373.653809,2872.334473 
	C3382.283447,2872.333252 3390.912842,2871.697021 3399.542480,2871.356934 
	C3399.644043,2873.206055 3399.745605,2875.055420 3399.800049,2878.294922 
	C3392.459229,2880.013184 3385.165527,2880.626709 3377.871582,2880.628174 
	C3052.006592,2880.697266 2726.141846,2880.713135 2398.451172,2880.684570 
z"/>
<path fill="#06121B" opacity="1.000000" stroke="none" 
	d="
M348.021301,2373.762207 
	C351.098724,2370.320557 354.653320,2369.237305 356.250244,2366.846680 
	C361.387085,2359.156250 365.882996,2351.029785 370.463165,2342.978760 
	C373.085480,2338.369141 375.017334,2333.333008 377.921539,2328.924805 
	C383.361816,2320.667480 391.315460,2318.049561 398.316376,2321.610352 
	C406.791321,2325.920654 410.167450,2334.244873 406.037354,2343.438477 
	C401.147949,2354.322510 396.471436,2365.592773 389.643982,2375.238770 
	C381.761230,2386.375732 383.305664,2396.009277 389.452881,2406.572021 
	C395.080444,2416.241699 400.529388,2426.024170 405.750732,2435.918701 
	C409.149811,2442.359375 408.782776,2448.651611 403.566589,2454.287109 
	C396.858826,2461.534180 387.059174,2462.320557 381.084351,2454.643799 
	C374.622498,2446.341064 369.673401,2436.866699 363.980560,2427.957275 
	C359.797546,2421.410645 358.714752,2412.809082 349.788330,2408.254883 
	C348.163086,2397.174072 347.882629,2386.348145 348.021301,2373.762207 
z"/>
<path fill="#001322" opacity="1.000000" stroke="none" 
	d="
M1086.216553,1852.770508 
	C1088.847778,1855.683472 1089.258301,1858.407349 1090.492554,1860.684692 
	C1101.173462,1880.393066 1112.002563,1900.020996 1122.960693,1919.988403 
	C1121.093872,1927.802856 1117.312134,1934.485840 1109.292603,1938.905640 
	C1100.174316,1938.020142 1094.261963,1933.010010 1090.049683,1924.468994 
	C1084.778687,1913.781250 1078.068848,1903.809204 1072.642578,1893.189697 
	C1069.108521,1886.273315 1063.974121,1883.780273 1056.605225,1883.945312 
	C1046.632812,1884.168823 1036.651001,1884.010498 1026.673462,1883.970093 
	C1022.685242,1883.953979 1018.645996,1884.193237 1014.719910,1883.657349 
	C1005.438538,1882.390381 999.459900,1874.815063 1000.450684,1865.428833 
	C1000.790283,1862.212158 1002.404297,1859.130127 1003.714966,1854.550659 
	C1030.788574,1852.868042 1057.583252,1852.621338 1086.216553,1852.770508 
z"/>
<path fill="#001322" opacity="1.000000" stroke="none" 
	d="
M922.168457,1852.719727 
	C924.748840,1855.638794 925.585144,1858.140503 926.227112,1860.691040 
	C929.706726,1874.515503 924.086426,1882.812988 910.500610,1883.906982 
	C908.528748,1884.065674 906.535767,1883.977295 904.552551,1883.977539 
	C874.802063,1883.980713 845.051636,1883.980713 815.301147,1883.976807 
	C813.317993,1883.976562 811.324707,1884.060547 809.353271,1883.897705 
	C798.511719,1883.002808 793.200256,1877.635132 792.086731,1866.241577 
	C791.766541,1862.964722 791.982300,1859.635254 791.985718,1854.711914 
	C810.426453,1852.838623 828.833130,1852.456299 847.241394,1852.359375 
	C871.605225,1852.230957 895.970154,1852.325928 922.168457,1852.719727 
z"/>
<path fill="#131E26" opacity="1.000000" stroke="none" 
	d="
M702.324158,1852.697021 
	C703.935730,1862.325073 703.703247,1871.538452 703.462402,1881.084717 
	C685.790466,1887.183472 668.252930,1881.387451 649.969116,1885.354370 
	C645.475891,1893.871338 640.627441,1903.185181 635.654236,1912.431641 
	C633.466797,1916.498657 631.585815,1920.961060 628.490356,1924.223877 
	C626.608032,1926.208130 622.277222,1927.627197 619.734619,1926.898438 
	C612.060791,1924.699463 604.854187,1921.153809 600.425476,1911.531982 
	C605.846008,1900.776367 611.048828,1888.568359 617.963928,1877.422852 
	C622.255859,1870.505249 624.839355,1863.244019 627.664429,1854.408203 
	C652.084412,1852.773193 676.282288,1852.527832 702.324158,1852.697021 
z"/>
<path fill="#061724" opacity="1.000000" stroke="none" 
	d="
M4679.881836,2875.210449 
	C4677.012207,2872.246094 4674.437012,2867.588867 4671.645508,2861.617188 
	C4673.242676,2860.220215 4675.057129,2860.137695 4678.232910,2860.050049 
	C4679.788574,2864.535645 4679.982422,2869.026611 4679.881836,2875.210449 
z"/>
<path fill="#06121B" opacity="1.000000" stroke="none" 
	d="
M348.198578,3085.262207 
	C349.662903,3084.492920 350.619385,3085.272217 351.629089,3087.264160 
	C350.620697,3087.591309 349.290192,3087.036133 348.198578,3085.262207 
z"/>
<path fill="#001322" opacity="1.000000" stroke="none" 
	d="
M2711.261719,2622.363281 
	C2707.831543,2625.387939 2704.909180,2627.701904 2701.969727,2627.723389 
	C2671.984131,2627.942871 2641.995605,2627.822998 2612.008789,2627.657471 
	C2610.182129,2627.647461 2608.361816,2626.448975 2605.934082,2625.589355 
	C2602.858398,2618.730713 2604.077148,2611.324707 2604.068848,2604.173584 
	C2603.975830,2522.198975 2603.875732,2440.223633 2604.111816,2358.249756 
	C2604.165039,2339.839355 2599.370850,2323.093018 2591.643311,2306.540527 
	C2584.968262,2292.242676 2573.868408,2282.743896 2560.420410,2277.069092 
	C2541.491943,2269.081055 2521.417480,2264.040771 2500.511963,2264.014160 
	C2483.184082,2263.992188 2465.855225,2263.926270 2448.528564,2264.069580 
	C2443.998291,2264.107178 2439.473877,2264.851074 2435.713135,2265.199463 
	C2430.440430,2271.259521 2432.123535,2277.533691 2432.101318,2283.318115 
	C2431.946777,2323.971680 2432.019775,2364.626221 2432.019531,2405.280273 
	C2432.019043,2471.259766 2432.036377,2537.239502 2431.992188,2603.218994 
	C2431.987549,2610.432861 2431.629150,2617.646729 2431.418457,2625.464600 
	C2413.308838,2630.437500 2396.015381,2627.378174 2378.983887,2627.866455 
	C2361.775879,2628.360107 2344.515869,2628.319092 2326.519287,2627.629150 
	C2325.522461,2622.668457 2324.283447,2618.950928 2324.121094,2615.187012 
	C2323.777100,2607.203857 2323.982666,2599.196533 2323.982422,2591.198975 
	C2323.979492,2491.896240 2323.988770,2392.593750 2323.963623,2293.291016 
	C2323.961670,2286.035645 2323.717773,2278.780273 2323.574463,2270.861816 
	C2319.596924,2269.749023 2316.546387,2268.159180 2313.491699,2268.151123 
	C2262.842773,2268.018311 2212.193604,2268.071289 2161.544434,2268.152100 
	C2159.599365,2268.155273 2157.655273,2268.854492 2154.648682,2269.434082 
	C2153.823486,2272.840820 2152.464111,2276.498047 2152.143311,2280.244385 
	C2151.690186,2285.538330 2151.992188,2290.898193 2151.991943,2296.229736 
	C2151.989502,2398.864746 2152.017578,2501.499512 2151.931641,2604.134521 
	C2151.925781,2611.287354 2153.139648,2618.692871 2150.075684,2625.573242 
	C2147.671631,2626.433838 2145.853271,2627.646484 2144.030273,2627.653564 
	C2113.378174,2627.775146 2082.725586,2627.779053 2052.073242,2627.670410 
	C2050.239990,2627.664062 2048.410889,2626.494873 2045.443115,2625.476807 
	C2044.972046,2621.896729 2044.072021,2618.093994 2044.038086,2614.283447 
	C2043.877686,2596.290283 2043.947754,2578.295166 2043.947388,2560.300781 
	C2043.945312,2438.338623 2043.922607,2316.376221 2044.001221,2194.414062 
	C2044.006226,2186.564209 2042.832764,2178.524658 2046.012695,2169.771484 
	C2049.812012,2169.194580 2053.588867,2168.524902 2057.392090,2168.083008 
	C2059.365723,2167.853760 2061.386230,2168.020752 2063.385498,2168.020752 
	C2222.669678,2168.022217 2381.955566,2167.616211 2541.236328,2168.342285 
	C2576.812012,2168.504395 2611.238525,2177.449951 2641.492920,2197.100342 
	C2677.169189,2220.271973 2698.057129,2254.231934 2707.803955,2295.237793 
	C2711.502441,2310.798584 2712.234863,2326.653809 2712.174316,2342.681641 
	C2711.825195,2435.316406 2711.857910,2527.952881 2711.261719,2622.363281 
z"/>
<path fill="#001322" opacity="1.000000" stroke="none" 
	d="
M3000.000732,2168.019531 
	C3047.984131,2168.021240 3093.998779,2166.977783 3139.941162,2168.355225 
	C3176.770020,2169.459229 3212.513672,2176.909424 3243.151123,2199.577393 
	C3277.566406,2225.040283 3300.290039,2257.861084 3308.563721,2300.622314 
	C3311.127441,2313.873047 3312.024414,2326.888916 3312.033691,2340.160156 
	C3312.062500,2382.145264 3312.520264,2424.137695 3311.865723,2466.112793 
	C3311.347656,2499.333740 3301.605225,2529.872803 3283.155029,2557.883789 
	C3259.322510,2594.066162 3223.832520,2612.485596 3183.851562,2622.818604 
	C3168.820068,2626.703613 3152.717041,2628.367920 3136.555420,2628.256104 
	C3055.254883,2627.693359 2973.948486,2627.987793 2892.644043,2628.034668 
	C2885.452637,2628.038574 2878.260986,2628.428711 2869.916260,2628.673584 
	C2869.201660,2635.052002 2868.159912,2640.143066 2868.136963,2645.238525 
	C2867.987061,2678.559570 2868.097168,2711.881104 2868.022705,2745.202637 
	C2868.008057,2751.766357 2867.559570,2758.329102 2867.332275,2764.333984 
	C2852.336914,2771.572266 2776.362549,2795.502930 2761.364746,2797.672363 
	C2760.923828,2792.504883 2760.135986,2787.406494 2760.112549,2782.304443 
	C2759.986572,2754.981201 2760.050537,2727.657471 2760.050537,2700.333740 
	C2760.050049,2587.040771 2760.034668,2473.748047 2760.079834,2360.455078 
	C2760.083496,2351.181885 2759.305908,2341.880615 2762.902344,2332.822510 
	C2764.307129,2329.285645 2763.860107,2324.943115 2763.938232,2320.961426 
	C2764.575684,2288.514648 2776.875244,2260.338867 2795.457275,2234.440674 
	C2822.781006,2196.358643 2861.502441,2179.334717 2906.467041,2171.508057 
	C2937.062256,2166.182617 2967.518799,2169.450928 3000.000732,2168.019531 
M2868.057373,2426.016602 
	C2868.058838,2454.657227 2868.015137,2483.298340 2868.104004,2511.938477 
	C2868.120117,2517.112793 2867.043213,2522.724365 2872.576904,2527.106934 
	C2875.932617,2527.356689 2879.887939,2527.904297 2883.843506,2527.907227 
	C2951.781738,2527.960938 3019.722412,2528.237549 3087.656738,2527.725098 
	C3102.791504,2527.611084 3117.922607,2524.810791 3133.017822,2522.943848 
	C3137.587402,2522.378418 3142.202881,2521.241455 3146.500732,2519.593018 
	C3159.525635,2514.597900 3173.015381,2510.040771 3182.557129,2499.149902 
	C3195.662598,2484.191895 3203.146729,2466.278076 3203.725586,2446.633789 
	C3204.686523,2414.025391 3204.989258,2381.327393 3203.680420,2348.742920 
	C3202.529053,2320.073486 3187.056152,2298.151123 3162.868408,2284.103271 
	C3148.749268,2275.903076 3132.500244,2271.570068 3115.191650,2271.775146 
	C3065.910156,2272.359375 3016.607666,2272.507812 2967.333252,2271.670166 
	C2949.481934,2271.366699 2933.181885,2275.680664 2916.942871,2281.676514 
	C2890.425781,2291.467529 2876.389648,2312.417480 2872.864014,2338.687744 
	C2870.154541,2358.875000 2865.788086,2379.278076 2867.937256,2400.058838 
	C2868.687012,2407.307861 2868.057373,2414.699707 2868.057373,2426.016602 
z"/>
<path fill="#001322" opacity="1.000000" stroke="none" 
	d="
M3863.949219,2404.002441 
	C3863.720459,2477.962891 3863.500488,2549.923828 3863.188477,2621.884521 
	C3863.183594,2623.028564 3862.053711,2624.167969 3861.128174,2625.914795 
	C3855.480713,2629.494629 3848.650146,2627.917236 3842.171631,2627.934814 
	C3794.850830,2628.064209 3747.529297,2628.005371 3700.208008,2628.004639 
	C3624.893799,2628.003662 3549.579590,2627.981201 3474.265381,2628.009766 
	C3444.989014,2628.020752 3420.147461,2618.179443 3398.972900,2597.385742 
	C3378.410889,2577.194092 3364.169189,2554.315186 3358.326660,2525.773193 
	C3356.275391,2515.752686 3356.712646,2505.984619 3355.918701,2496.106689 
	C3354.009766,2472.356689 3358.285156,2449.660889 3368.524902,2428.329102 
	C3383.802734,2396.501709 3406.906738,2372.650635 3441.293213,2361.667725 
	C3453.930908,2357.631592 3466.968506,2355.787598 3480.496094,2355.845215 
	C3562.473877,2356.194824 3644.453613,2356.019531 3726.432861,2356.019531 
	C3733.695801,2356.019531 3740.958984,2356.019531 3747.978760,2356.019531 
	C3754.084473,2346.919678 3752.729004,2338.278076 3750.596191,2330.043457 
	C3741.103516,2293.389404 3715.776123,2273.318604 3678.924316,2267.509033 
	C3656.328369,2263.946777 3633.924072,2264.176270 3611.379639,2264.063721 
	C3570.057861,2263.857666 3528.734131,2264.004883 3487.411377,2264.004883 
	C3484.745361,2264.004883 3482.079346,2264.015869 3479.413330,2264.002930 
	C3454.594727,2263.881104 3457.122070,2266.166260 3446.053711,2243.985107 
	C3437.130371,2226.102783 3428.196777,2208.225342 3419.303955,2190.327881 
	C3417.230957,2186.155518 3414.974365,2182.025635 3413.448486,2177.650879 
	C3412.666504,2175.408691 3413.311035,2172.668945 3413.311035,2169.205566 
	C3419.476074,2168.764648 3424.685303,2168.071777 3429.894775,2168.067871 
	C3516.539551,2168.003174 3603.197510,2167.122803 3689.822998,2168.421143 
	C3730.899658,2169.036377 3769.946289,2180.272217 3803.030518,2206.145996 
	C3812.819336,2213.801270 3821.151611,2223.760498 3828.682617,2233.769043 
	C3844.085205,2254.238525 3854.084473,2277.548828 3858.677979,2302.680908 
	C3861.643555,2318.905029 3862.931396,2335.522705 3863.764404,2352.024902 
	C3864.603516,2368.645020 3863.949219,2385.340576 3863.949219,2404.002441 
M3546.052246,2443.941406 
	C3532.742920,2443.944092 3519.420654,2444.317627 3506.128174,2443.844971 
	C3492.865234,2443.373535 3482.887939,2449.199707 3475.278320,2459.159668 
	C3461.483643,2477.214600 3459.252930,2497.679199 3469.587402,2517.278564 
	C3478.677002,2534.516357 3494.234863,2544.160645 3515.153809,2544.072754 
	C3590.349609,2543.756592 3665.547607,2543.977295 3740.744629,2543.863525 
	C3745.168701,2543.856689 3749.591553,2542.692139 3754.693115,2541.970459 
	C3756.774658,2530.534668 3755.756104,2519.924805 3755.908936,2509.407959 
	C3756.063721,2498.762695 3756.197266,2488.105957 3755.871338,2477.468506 
	C3755.552246,2467.043213 3757.531982,2456.371582 3754.337646,2446.924561 
	C3751.930420,2445.725586 3750.775635,2444.649902 3749.616455,2444.644531 
	C3683.089111,2444.353760 3616.561768,2444.152100 3546.052246,2443.941406 
z"/>
<path fill="#001322" opacity="1.000000" stroke="none" 
	d="
M3924.009766,2092.000000 
	C3924.009766,2054.720703 3924.009766,2019.441284 3924.009766,1984.825562 
	C3940.789551,1974.972168 3991.375244,1958.231445 4028.409180,1950.002197 
	C4032.235352,1951.630493 4031.846680,1955.219360 4031.956055,1958.408569 
	C4032.138916,1963.735718 4032.054443,1969.072632 4032.054688,1974.405518 
	C4032.057373,2183.059570 4032.056396,2391.713379 4032.056396,2600.367432 
	C4032.056396,2608.309570 4032.056641,2616.251709 4032.056641,2623.765625 
	C4029.130615,2625.428955 4027.451904,2627.211182 4025.764404,2627.219727 
	C3993.165527,2627.384277 3960.565674,2627.341553 3927.029541,2627.341553 
	C3925.971191,2623.295410 3924.472900,2619.674561 3924.177490,2615.958008 
	C3923.702881,2609.995117 3924.011719,2603.968750 3924.011719,2597.969238 
	C3924.009277,2429.979492 3924.009766,2261.989746 3924.009766,2092.000000 
z"/>
<path fill="#001322" opacity="1.000000" stroke="none" 
	d="
M1980.053711,2456.000000 
	C1979.832886,2512.597900 1979.622803,2567.195557 1979.317749,2621.792969 
	C1979.311279,2622.945068 1978.209717,2624.090820 1976.928345,2626.583496 
	C1966.824219,2629.547363 1955.496460,2627.610840 1944.391846,2627.927490 
	C1932.412354,2628.269287 1920.410156,2628.230225 1908.427979,2627.939209 
	C1897.264526,2627.668213 1885.947266,2629.325928 1873.857178,2626.296387 
	C1873.228149,2622.150635 1872.388306,2618.382324 1872.147461,2614.575684 
	C1871.853394,2609.931396 1872.054932,2605.255127 1872.054810,2600.592773 
	C1872.053589,2412.095459 1872.048950,2223.598145 1872.070312,2035.100708 
	C1872.071167,2027.204346 1872.315674,2019.307983 1872.452515,2011.066772 
	C1875.933838,2009.850830 1878.333130,2008.292480 1880.739014,2008.282104 
	C1911.371582,2008.150024 1942.005127,2008.225342 1972.638306,2008.325439 
	C1973.893555,2008.329468 1975.146484,2009.095093 1977.578125,2009.891724 
	C1978.294922,2012.980103 1979.636475,2016.650391 1979.904175,2020.397461 
	C1980.330200,2026.362427 1980.051880,2032.378662 1980.052002,2038.373169 
	C1980.054199,2176.915527 1980.053711,2315.457764 1980.053711,2456.000000 
z"/>
<path fill="#0085E9" opacity="1.000000" stroke="none" 
	d="
M700.298462,2276.550781 
	C724.800415,2237.332031 757.087708,2209.567627 799.537415,2194.574951 
	C906.166870,2156.914307 1020.990112,2215.737305 1050.497437,2327.145020 
	C1052.360962,2334.180908 1053.108643,2341.512207 1054.637085,2350.191406 
	C1051.039673,2350.313477 1047.873413,2351.139404 1045.120850,2350.407959 
	C994.315430,2336.909668 943.570679,2323.184082 892.786072,2309.607178 
	C878.563293,2305.804932 864.431702,2303.468262 849.470398,2306.968506 
	C801.130737,2318.278320 782.412598,2365.781494 791.079712,2397.702393 
	C800.321655,2431.740234 809.223511,2465.870117 818.253296,2499.965088 
	C823.353210,2519.222168 828.411743,2538.489990 833.423523,2557.504639 
	C827.030212,2562.996094 821.067017,2560.211182 815.663635,2558.743164 
	C776.607788,2548.133789 743.876099,2527.427246 717.879883,2496.316162 
	C693.748230,2467.436768 679.745911,2434.348877 675.190979,2396.867432 
	C670.016724,2354.289307 678.706177,2314.894043 700.298462,2276.550781 
z"/>
<path fill="#0084E7" opacity="1.000000" stroke="none" 
	d="
M3399.623535,2869.586182 
	C3390.912842,2871.697021 3382.283447,2872.333252 3373.653809,2872.334473 
	C3056.888916,2872.385254 2740.124268,2872.374756 2423.359375,2872.390625 
	C2415.376709,2872.391113 2407.394287,2872.592773 2397.586182,2873.219238 
	C2387.777832,2873.537354 2379.794922,2873.163330 2371.812012,2873.161621 
	C2213.944580,2873.127686 2056.077148,2873.159180 1898.209717,2873.067383 
	C1890.437012,2873.062744 1882.390381,2874.494629 1874.075073,2870.935059 
	C1872.445068,2860.168213 1872.607788,2849.766113 1874.036743,2838.139160 
	C1878.010620,2837.498291 1881.722900,2836.614014 1885.477051,2836.366943 
	C1890.119995,2836.061523 1894.797852,2836.281738 1899.460571,2836.281738 
	C2391.047607,2836.281250 2882.634766,2836.276611 3374.221924,2836.322266 
	C3382.058838,2836.322998 3390.034424,2835.438965 3398.365967,2837.635254 
	C3400.883057,2848.050537 3399.290039,2858.004150 3399.623535,2869.586182 
z"/>
<path fill="#0085E9" opacity="1.000000" stroke="none" 
	d="
M4271.292969,2297.447998 
	C4259.814941,2313.058838 4247.773438,2327.254639 4235.457520,2341.208252 
	C4221.351074,2357.189941 4206.960938,2372.920654 4192.794434,2388.849121 
	C4190.226562,2391.736084 4188.141602,2395.052490 4185.179688,2399.053955 
	C4218.392578,2437.861328 4252.898438,2474.819336 4286.585938,2512.493164 
	C4319.808105,2549.646973 4353.257324,2586.598145 4386.139160,2623.118408 
	C4383.865723,2628.852539 4380.108887,2627.627930 4377.088379,2627.634521 
	C4337.762207,2627.719482 4298.434082,2627.477783 4259.111328,2627.850586 
	C4249.707520,2627.939697 4243.151855,2625.038086 4236.740234,2617.910400 
	C4186.401367,2561.946777 4136.203613,2505.834961 4084.753662,2450.900635 
	C4059.821777,2424.280273 4054.255859,2378.037842 4084.659424,2346.011475 
	C4100.229980,2329.609863 4115.301758,2312.735107 4130.836426,2295.815674 
	C4134.190430,2295.508301 4137.466797,2294.952148 4140.743652,2294.946777 
	C4180.736328,2294.884033 4220.729004,2294.877930 4260.721680,2294.943604 
	C4264.017578,2294.949219 4267.312988,2295.583740 4271.292969,2297.447998 
z"/>
<path fill="#0081E2" opacity="1.000000" stroke="none" 
	d="
M4321.837891,2888.080078 
	C4290.115723,2888.222656 4260.170898,2888.213867 4230.226074,2888.113281 
	C4229.032227,2888.109131 4227.841309,2887.235352 4225.858398,2886.456299 
	C4228.277832,2875.341553 4234.644531,2866.058350 4240.588867,2855.067871 
	C4252.685547,2853.524658 4265.277344,2854.752441 4277.775391,2854.287598 
	C4287.725098,2853.917725 4297.791016,2854.133057 4307.582520,2852.631836 
	C4324.365234,2850.058838 4331.668457,2841.408447 4332.659180,2824.304199 
	C4332.964355,2819.038818 4332.823242,2813.557617 4331.692871,2808.438721 
	C4329.370605,2797.920654 4322.960449,2790.650635 4312.219238,2787.922119 
	C4308.362305,2786.942871 4304.376953,2785.898926 4300.444824,2785.875000 
	C4271.864258,2785.701904 4243.281738,2785.781982 4215.761719,2785.781982 
	C4209.327637,2791.482666 4211.152344,2797.841553 4211.131836,2803.535400 
	C4210.972168,2848.124268 4211.069824,2892.713867 4211.010742,2937.303223 
	C4211.002441,2943.856445 4210.587891,2950.409180 4210.373047,2956.615234 
	C4195.672852,2960.668945 4190.903809,2960.741211 4174.639160,2957.327393 
	C4174.155273,2955.659912 4173.145996,2953.801270 4173.144043,2951.941895 
	C4173.072754,2887.388916 4173.083496,2822.835693 4173.169922,2758.282715 
	C4173.172363,2756.426758 4174.117676,2754.571777 4174.865723,2751.825928 
	C4179.311523,2751.327637 4183.812500,2750.398926 4188.316406,2750.384521 
	C4225.584961,2750.266602 4262.854492,2750.222656 4300.122070,2750.393799 
	C4308.083008,2750.430420 4316.133789,2750.843506 4323.979492,2752.104492 
	C4346.444824,2755.715088 4361.635254,2768.389160 4367.732422,2790.482666 
	C4373.143066,2810.089600 4372.766113,2830.078125 4367.676270,2849.691162 
	C4363.411621,2866.123535 4352.958008,2877.791504 4336.996094,2884.046387 
	C4332.691406,2885.732910 4328.083984,2886.644775 4321.837891,2888.080078 
z"/>
<path fill="#0081E2" opacity="1.000000" stroke="none" 
	d="
M4016.285889,2800.690430 
	C4009.558105,2789.841797 4000.129395,2786.288086 3989.902100,2786.124268 
	C3960.651367,2785.655762 3931.388428,2785.959473 3903.033691,2785.959473 
	C3897.674072,2792.072998 3899.123535,2798.314453 3899.108154,2804.134277 
	C3898.989258,2848.754883 3899.076416,2893.376221 3899.002441,2937.997314 
	C3898.991699,2944.517578 3898.465820,2951.036865 3898.145264,2958.302734 
	C3885.977051,2960.688965 3874.926025,2960.078613 3862.997559,2958.766602 
	C3862.305420,2955.460449 3861.084717,2952.335449 3861.080078,2949.208496 
	C3860.983154,2885.940674 3861.016602,2822.672607 3861.080811,2759.404541 
	C3861.082764,2757.450439 3861.690186,2755.496826 3862.213623,2752.351074 
	C3866.399170,2751.697754 3870.800293,2750.431885 3875.207031,2750.413574 
	C3913.167480,2750.255859 3951.129150,2750.241455 3989.089844,2750.393799 
	C3996.391602,2750.423096 4003.753418,2750.928223 4010.978027,2751.972168 
	C4035.782715,2755.556152 4053.757568,2772.957520 4056.481689,2797.955811 
	C4058.055908,2812.401367 4058.111328,2827.300049 4056.527344,2841.739746 
	C4053.614990,2868.286621 4033.646484,2887.186279 4007.223389,2888.042725 
	C3977.291260,2889.012695 3947.300781,2888.191650 3917.336182,2888.043457 
	C3916.275879,2888.038086 3915.221436,2886.907227 3913.235596,2885.768311 
	C3916.478516,2875.147461 3922.216064,2865.602295 3928.327148,2854.979736 
	C3942.020020,2853.666748 3955.945801,2854.709473 3969.808350,2854.267822 
	C3978.438232,2853.992920 3987.172119,2853.990967 3995.650391,2852.596924 
	C4011.302246,2850.023926 4018.999023,2841.269775 4020.017090,2825.644287 
	C4020.533691,2817.717041 4021.053955,2809.610107 4016.285889,2800.690430 
z"/>
<path fill="#0083E4" opacity="1.000000" stroke="none" 
	d="
M3585.451660,2837.395508 
	C3596.883057,2814.652344 3607.566406,2793.201416 3618.348877,2771.800293 
	C3620.738770,2767.056641 3623.007324,2762.137939 3626.156250,2757.914062 
	C3632.446289,2749.476562 3645.446289,2748.951416 3652.348145,2756.843994 
	C3655.360107,2760.288574 3657.597168,2764.521484 3659.679199,2768.652100 
	C3689.039307,2826.899658 3718.354248,2885.170410 3747.523926,2943.513672 
	C3749.782227,2948.030518 3753.966309,2952.406982 3750.743896,2959.020264 
	C3738.585205,2959.020264 3726.085693,2959.020264 3712.766113,2959.020264 
	C3707.119873,2948.587402 3701.455811,2938.121582 3695.505859,2927.127930 
	C3690.775146,2926.618896 3686.248047,2925.746338 3681.714355,2925.710693 
	C3661.733643,2925.553223 3641.749756,2925.739258 3621.769531,2925.563477 
	C3616.628662,2925.518311 3611.495605,2924.608643 3604.325195,2923.892822 
	C3610.032715,2912.233643 3614.899658,2902.291260 3620.129395,2891.607910 
	C3638.712646,2891.607910 3656.517578,2891.607910 3675.010254,2891.607910 
	C3675.330078,2881.062988 3669.267822,2874.302002 3665.822998,2866.703857 
	C3661.980469,2858.229004 3657.385010,2850.092041 3653.026611,2841.855957 
	C3649.073242,2834.385010 3646.256836,2826.208984 3639.801270,2818.653564 
	C3633.882324,2823.741455 3632.099365,2830.198975 3629.063477,2835.704590 
	C3625.852051,2841.527832 3623.104492,2847.606689 3620.144775,2853.569336 
	C3617.185303,2859.531982 3614.219727,2865.491943 3611.246826,2871.447998 
	C3608.273926,2877.404053 3605.288330,2883.353760 3602.309082,2889.306885 
	C3599.627930,2894.664551 3596.958008,2900.027588 3594.264404,2905.378906 
	C3591.271484,2911.324463 3588.240479,2917.250977 3585.256836,2923.201172 
	C3582.273193,2929.151367 3579.377686,2935.146729 3576.350586,2941.074707 
	C3573.338623,2946.972900 3570.210693,2952.812012 3566.951172,2959.024902 
	C3553.908447,2959.024902 3541.384521,2959.024902 3529.071533,2959.024902 
	C3525.330566,2952.853271 3529.548340,2948.448486 3531.795410,2943.949219 
	C3549.340332,2908.816895 3567.067871,2873.775391 3585.451660,2837.395508 
z"/>
<path fill="#001322" opacity="1.000000" stroke="none" 
	d="
M549.270020,2706.668213 
	C551.373413,2710.978271 553.310486,2713.853027 554.085449,2717.012939 
	C555.726135,2723.702148 550.843994,2732.752441 544.904480,2735.009277 
	C537.711548,2737.742432 529.115112,2735.557373 525.227722,2729.945312 
	C524.477173,2728.861816 523.964233,2727.614502 523.335571,2726.445801 
	C513.285583,2707.761475 503.178131,2689.107666 493.198364,2670.385742 
	C481.345947,2648.150879 469.567291,2625.876465 457.836700,2603.576904 
	C454.748749,2597.706787 451.956665,2591.680664 448.663574,2584.983887 
	C449.980713,2581.686035 450.816864,2577.651855 452.979462,2574.539551 
	C459.599182,2565.012939 473.305908,2565.600098 479.511078,2575.368896 
	C480.220825,2576.486328 480.746948,2577.719727 481.366821,2578.895020 
	C494.364655,2603.529053 507.317627,2628.187012 520.378052,2652.787842 
	C529.702820,2670.352295 539.172302,2687.840088 549.270020,2706.668213 
z"/>
<path fill="#001322" opacity="1.000000" stroke="none" 
	d="
M525.067505,2052.998779 
	C529.911499,2048.317383 533.290588,2043.523193 539.486877,2044.692505 
	C545.624512,2045.850464 550.482422,2048.989014 553.370605,2054.944092 
	C555.558105,2059.454346 555.968506,2063.426025 553.451416,2068.120850 
	C533.966553,2104.463867 514.756226,2140.954102 495.305664,2177.315674 
	C490.292419,2186.687500 484.636871,2195.713623 479.444427,2204.992432 
	C475.473175,2212.088623 469.033661,2212.634033 462.144562,2211.737305 
	C455.568420,2210.881348 451.338837,2206.581299 449.118774,2200.721924 
	C448.291809,2198.539307 448.888092,2195.381592 449.815582,2193.060303 
	C451.786896,2188.126709 454.239624,2183.362061 456.783173,2178.685059 
	C463.133057,2167.009277 469.769897,2155.488770 476.065399,2143.784424 
	C492.130493,2113.916748 508.072113,2083.982910 525.067505,2052.998779 
z"/>
<path fill="#001322" opacity="1.000000" stroke="none" 
	d="
M1180.886719,2095.137695 
	C1175.051025,2084.576660 1169.682373,2075.386719 1165.349731,2065.732178 
	C1162.275879,2058.882568 1164.535156,2052.948486 1170.352051,2047.983887 
	C1176.473389,2042.759399 1184.315674,2042.789917 1190.067749,2048.425049 
	C1192.395020,2050.705078 1194.434814,2053.440186 1196.012695,2056.295898 
	C1204.666748,2071.956055 1213.246582,2087.659424 1221.645020,2103.458252 
	C1235.028687,2128.633789 1248.309692,2153.864990 1261.485718,2179.150146 
	C1263.919922,2183.821533 1266.406372,2188.694824 1267.509766,2193.770752 
	C1268.775635,2199.593262 1268.856812,2205.986328 1262.847046,2209.900391 
	C1256.545166,2214.004639 1246.103638,2212.568848 1241.005737,2206.647949 
	C1238.022583,2203.183594 1235.702148,2199.056396 1233.553711,2194.979736 
	C1216.238159,2162.123291 1199.034546,2129.207764 1180.886719,2095.137695 
z"/>
<path fill="#001322" opacity="1.000000" stroke="none" 
	d="
M621.369751,2910.825684 
	C615.781921,2900.788574 610.849670,2892.131836 606.056213,2883.398682 
	C603.494324,2878.731201 600.925293,2874.040283 598.792114,2869.170410 
	C594.099060,2858.457031 596.737976,2849.957031 605.823303,2845.508789 
	C613.448853,2841.775146 621.389404,2844.966797 627.309143,2854.770508 
	C633.146423,2864.437988 638.496338,2874.399170 644.099548,2884.208740 
	C646.065674,2887.650879 648.149109,2891.026123 650.904236,2895.648926 
	C665.070618,2895.784180 679.656921,2896.477539 694.188782,2895.869385 
	C704.023621,2895.457764 710.746399,2899.524170 716.414673,2906.718262 
	C720.784851,2912.264404 720.279419,2917.469727 715.184448,2922.661621 
	C711.139587,2926.783447 706.316345,2928.101074 700.717163,2928.065918 
	C683.389954,2927.957520 666.029175,2927.393066 648.744141,2928.258057 
	C635.632446,2928.914062 626.904785,2924.284424 621.369751,2910.825684 
z"/>
<path fill="#001322" opacity="1.000000" stroke="none" 
	d="
M852.082764,2896.058594 
	C870.018494,2896.060059 885.986206,2895.742432 901.929016,2896.231934 
	C907.720703,2896.409668 913.614136,2898.031006 919.166870,2899.878174 
	C924.589600,2901.682373 927.810303,2905.873047 927.723877,2911.999512 
	C927.633911,2918.377686 922.873352,2925.174561 916.592529,2926.960693 
	C913.465271,2927.849854 910.046692,2927.989746 906.758972,2927.996582 
	C874.178528,2928.064209 841.597839,2928.034424 809.017273,2928.026367 
	C807.687927,2928.026123 806.352051,2928.042480 805.030273,2927.925781 
	C798.098328,2927.316162 794.130310,2924.652100 792.767761,2919.752197 
	C790.355408,2911.077148 792.241699,2903.969238 799.190613,2900.736816 
	C804.445251,2898.292480 810.439880,2896.620117 816.206604,2896.269043 
	C827.468506,2895.583252 838.801331,2896.062012 852.082764,2896.058594 
z"/>
<path fill="#001322" opacity="1.000000" stroke="none" 
	d="
M1334.660156,2385.698242 
	C1327.305054,2370.630615 1320.178223,2357.117432 1313.848389,2343.240723 
	C1309.935913,2334.663574 1312.658325,2327.359131 1320.140503,2322.509766 
	C1326.133301,2318.625977 1333.766724,2319.426514 1337.946411,2325.032227 
	C1341.891602,2330.323486 1345.553833,2335.912109 1348.637085,2341.741943 
	C1355.459961,2354.642334 1361.505127,2367.960938 1368.518799,2380.751709 
	C1373.284058,2389.441895 1372.146240,2397.206299 1367.351074,2405.137451 
	C1363.242065,2411.933350 1359.306885,2418.836914 1355.096924,2425.569336 
	C1351.645020,2431.089355 1348.357056,2432.289307 1341.565186,2430.563232 
	C1336.487183,2429.273193 1331.505249,2427.605713 1326.703003,2426.172607 
	C1322.624146,2420.852539 1324.650879,2416.050537 1326.582397,2410.971680 
	C1329.589355,2403.065186 1336.461792,2396.532959 1334.660156,2385.698242 
z"/>
<path fill="none" opacity="1.000000" stroke="none" 
	d="
M2868.057617,2424.021484 
	C2868.057373,2414.699707 2868.687012,2407.307861 2867.937256,2400.058838 
	C2865.788086,2379.278076 2870.154541,2358.875000 2872.864014,2338.687744 
	C2876.389648,2312.417480 2890.425781,2291.467529 2916.942871,2281.676514 
	C2933.181885,2275.680664 2949.481934,2271.366699 2967.333252,2271.670166 
	C3016.607666,2272.507812 3065.910156,2272.359375 3115.191650,2271.775146 
	C3132.500244,2271.570068 3148.749268,2275.903076 3162.868408,2284.103271 
	C3187.056152,2298.151123 3202.529053,2320.073486 3203.680420,2348.742920 
	C3204.989258,2381.327393 3204.686523,2414.025391 3203.725586,2446.633789 
	C3203.146729,2466.278076 3195.662598,2484.191895 3182.557129,2499.149902 
	C3173.015381,2510.040771 3159.525635,2514.597900 3146.500732,2519.593018 
	C3142.202881,2521.241455 3137.587402,2522.378418 3133.017822,2522.943848 
	C3117.922607,2524.810791 3102.791504,2527.611084 3087.656738,2527.725098 
	C3019.722412,2528.237549 2951.781738,2527.960938 2883.843506,2527.907227 
	C2879.887939,2527.904297 2875.932617,2527.356689 2872.576904,2527.106934 
	C2867.043213,2522.724365 2868.120117,2517.112793 2868.104004,2511.938477 
	C2868.015137,2483.298340 2868.058838,2454.657227 2868.057617,2424.021484 
z"/>
<path fill="none" opacity="1.000000" stroke="none" 
	d="
M3548.043213,2443.941406 
	C3616.561768,2444.152100 3683.089111,2444.353760 3749.616455,2444.644531 
	C3750.775635,2444.649902 3751.930420,2445.725586 3754.337646,2446.924561 
	C3757.531982,2456.371582 3755.552246,2467.043213 3755.871338,2477.468506 
	C3756.197266,2488.105957 3756.063721,2498.762695 3755.908936,2509.407959 
	C3755.756104,2519.924805 3756.774658,2530.534668 3754.693115,2541.970459 
	C3749.591553,2542.692139 3745.168701,2543.856689 3740.744629,2543.863525 
	C3665.547607,2543.977295 3590.349609,2543.756592 3515.153809,2544.072754 
	C3494.234863,2544.160645 3478.677002,2534.516357 3469.587402,2517.278564 
	C3459.252930,2497.679199 3461.483643,2477.214600 3475.278320,2459.159668 
	C3482.887939,2449.199707 3492.865234,2443.373535 3506.128174,2443.844971 
	C3519.420654,2444.317627 3532.742920,2443.944092 3548.043213,2443.941406 
z"/>
</svg>